{"glyphs":{"0":{"ha":890,"x_min":63,"x_max":828,"o":"m 723 115 q 670 51 723 115 q 446 -14 618 -14 q 168 115 274 -14 q 63 456 63 244 q 168 794 63 667 q 446 922 274 922 q 723 794 618 922 q 828 456 828 665 q 723 115 828 244 m 390 297 q 400 266 390 297 q 446 236 411 236 q 501 297 481 236 q 522 456 522 357 q 501 613 522 553 q 446 672 481 672 q 390 613 411 672 q 368 456 368 554 q 390 297 368 357 z "},"1":{"ha":554,"x_min":63,"x_max":482,"o":"m 63 585 l 63 758 q 195 800 140 758 q 269 910 250 842 l 482 910 l 482 0 l 207 0 l 207 585 l 63 585 z "},"2":{"ha":765,"x_min":38,"x_max":690,"o":"m 43 563 q 125 826 38 728 q 374 924 213 924 q 603 844 517 924 q 690 633 690 764 q 637 438 690 524 q 460 229 583 353 l 689 229 l 689 0 l 65 0 l 65 147 q 174 265 117 204 q 260 358 231 326 q 322 424 290 389 q 368 478 354 460 q 395 519 382 497 q 412 559 408 542 q 415 599 415 576 q 360 674 415 674 q 293 563 293 674 l 43 563 z "},"3":{"ha":725,"x_min":54,"x_max":663,"o":"m 57 826 q 343 924 171 924 q 556 855 474 924 q 638 674 638 786 q 605 555 638 613 q 519 467 572 497 q 623 384 583 440 q 663 261 663 328 q 567 63 663 139 q 318 -12 472 -12 q 54 69 153 -12 l 86 296 q 278 231 171 231 q 351 247 324 231 q 379 292 379 264 q 297 343 379 343 l 185 343 l 185 539 l 285 539 q 341 558 319 539 q 363 608 363 576 q 343 656 363 638 q 286 674 324 674 q 138 617 222 674 l 57 826 z "},"4":{"ha":797,"x_min":29,"x_max":740,"o":"m 29 124 l 29 289 l 297 910 l 639 910 l 639 346 l 740 346 l 740 124 l 639 124 l 639 0 l 361 0 l 361 124 l 29 124 m 265 346 l 375 346 l 375 596 l 265 346 z "},"5":{"ha":776,"x_min":72,"x_max":718,"o":"m 464 558 q 647 488 576 558 q 718 303 718 417 q 619 74 718 163 q 347 -14 519 -14 q 195 10 269 -14 q 72 75 121 35 l 104 301 q 313 231 201 231 q 406 250 371 231 q 442 304 442 269 q 426 343 442 329 q 385 357 410 357 q 310 332 339 357 l 74 390 l 115 910 l 642 910 l 642 672 l 335 672 l 324 528 q 464 558 389 558 z "},"6":{"ha":818,"x_min":63,"x_max":760,"o":"m 63 456 q 175 796 63 668 q 463 924 288 924 q 738 840 622 924 l 654 628 q 497 685 569 685 q 397 635 438 685 q 349 501 357 585 q 532 567 426 567 q 698 492 636 567 q 760 296 760 418 q 667 72 760 157 q 425 -14 575 -14 q 163 114 263 -14 q 63 456 63 242 m 356 336 q 426 231 374 231 q 475 251 457 231 q 493 306 493 272 q 476 358 493 339 q 432 378 460 378 q 356 336 390 378 z "},"7":{"ha":682,"x_min":40,"x_max":667,"o":"m 40 672 l 40 910 l 667 910 l 667 750 l 385 0 l 103 0 l 347 672 l 40 672 z "},"8":{"ha":826,"x_min":60,"x_max":765,"o":"m 60 229 q 92 370 60 314 q 199 471 125 426 q 96 682 96 556 q 181 853 96 783 q 419 924 267 924 q 651 854 567 924 q 735 683 735 785 q 628 483 735 565 q 765 257 765 396 q 669 67 765 149 q 407 -14 574 -14 q 153 60 246 -14 q 60 229 60 133 m 351 678 q 415 581 351 619 q 479 678 479 638 q 461 720 479 704 q 415 736 443 736 q 369 720 386 736 q 351 678 351 704 m 338 264 q 360 217 338 236 q 411 199 382 199 q 464 217 440 199 q 488 263 488 235 q 463 315 488 290 q 406 354 438 340 l 399 357 q 338 264 338 310 z "},"9":{"ha":815,"x_min":58,"x_max":751,"o":"m 58 600 q 151 836 58 749 q 392 924 243 924 q 659 787 567 924 q 751 439 751 650 q 635 111 751 236 q 332 -14 518 -14 q 92 56 185 -14 l 172 275 q 329 224 256 224 q 415 268 379 224 q 460 393 450 313 q 294 335 394 335 q 121 409 183 335 q 58 600 58 483 m 332 615 q 388 531 332 531 q 456 579 431 531 q 386 692 440 692 q 332 615 332 692 z "}," ":{"ha":325,"x_min":0,"x_max":0,"o":""},"!":{"ha":436,"x_min":88,"x_max":360,"o":"m 360 985 l 329 257 l 118 257 l 88 985 l 360 985 m 224 -71 q 128 -31 167 -71 q 89 68 89 10 q 128 164 89 124 q 224 204 168 204 q 317 163 276 204 q 357 68 357 122 q 317 -30 357 11 q 224 -71 276 -71 z "},"\"":{"ha":601,"x_min":96,"x_max":547,"o":"m 104 638 l 96 986 l 278 986 l 269 638 l 104 638 m 374 638 l 365 986 l 547 986 l 539 638 l 374 638 z "},"#":{"ha":1017,"x_min":64,"x_max":953,"o":"m 64 238 l 64 383 l 235 383 l 263 525 l 64 525 l 64 671 l 290 671 l 338 917 l 496 917 l 449 671 l 632 671 l 676 917 l 835 917 l 790 671 l 953 671 l 953 525 l 765 525 l 739 383 l 953 383 l 953 238 l 714 238 l 671 0 l 513 0 l 556 238 l 365 238 l 319 0 l 161 0 l 207 238 l 64 238 m 393 383 l 581 383 l 607 525 l 421 525 l 393 383 z "},"$":{"ha":746,"x_min":64,"x_max":703,"o":"m 64 114 l 119 329 q 353 251 240 251 q 428 292 428 251 q 401 334 428 317 q 336 361 375 351 q 251 389 297 371 q 167 431 206 407 q 101 506 128 456 q 75 626 75 556 q 133 797 75 728 q 296 888 192 867 l 283 1000 l 524 1000 l 511 882 q 693 801 628 858 l 622 589 q 394 665 515 665 q 350 631 350 665 q 376 590 350 608 q 442 560 403 572 q 528 528 482 549 q 613 481 574 507 q 677 403 651 454 q 703 286 703 353 q 501 29 700 81 l 515 -94 l 275 -94 l 288 19 q 64 114 144 38 z "},"%":{"ha":1232,"x_min":53,"x_max":1207,"o":"m 426 462 q 397 425 426 462 q 269 388 367 388 q 113 462 172 388 q 53 657 53 536 q 113 850 53 776 q 269 924 172 924 q 426 850 367 924 q 486 657 486 776 q 426 462 486 536 m 869 903 l 540 0 l 383 0 l 711 903 l 869 903 m 226 657 q 238 575 226 606 q 269 544 250 544 q 300 575 289 544 q 311 657 311 606 q 299 736 311 706 q 269 767 288 767 q 238 737 250 767 q 226 657 226 707 m 1147 60 q 1117 23 1147 60 q 990 -14 1088 -14 q 833 60 893 -14 q 774 256 774 135 q 833 449 774 375 q 990 522 893 522 q 1147 449 1088 522 q 1207 256 1207 375 q 1147 60 1207 135 m 949 256 q 960 174 949 204 q 992 143 972 143 q 1022 174 1011 143 q 1033 256 1033 204 q 1022 335 1033 304 q 992 365 1010 365 q 960 335 972 365 q 949 256 949 306 z "},"&":{"ha":967,"x_min":53,"x_max":986,"o":"m 53 228 q 99 390 53 326 q 226 504 146 454 q 122 724 122 633 q 203 925 122 850 q 418 1000 285 1000 q 632 927 551 1000 q 713 732 713 854 q 563 465 713 589 q 644 374 625 396 q 658 467 658 417 l 882 467 q 814 174 890 307 l 986 -31 l 697 -31 l 663 8 q 399 -69 544 -69 q 148 13 243 -69 q 53 228 53 94 m 360 742 q 418 624 360 697 q 478 743 478 676 q 461 799 478 779 q 418 819 444 819 q 376 798 393 819 q 360 742 360 776 m 322 229 q 340 182 322 200 q 390 164 358 164 q 500 192 449 164 l 433 268 l 381 328 q 322 229 322 274 z "},"'":{"ha":332,"x_min":75,"x_max":257,"o":"m 83 638 l 75 986 l 257 986 l 249 638 l 83 638 z "},"(":{"ha":447,"x_min":71,"x_max":414,"o":"m 71 467 q 99 753 71 608 q 176 1000 128 897 l 414 1000 q 341 749 368 894 q 314 467 314 604 q 341 181 314 326 q 413 -69 368 35 l 175 -69 q 99 178 128 32 q 71 467 71 324 z "},")":{"ha":446,"x_min":36,"x_max":379,"o":"m 379 467 q 351 178 379 324 q 275 -69 322 32 l 38 -69 q 109 181 82 35 q 136 467 136 326 q 109 749 136 604 q 36 1000 82 894 l 274 1000 q 351 753 322 897 q 379 467 379 608 z "},"*":{"ha":667,"x_min":63,"x_max":607,"o":"m 607 782 l 440 707 l 607 632 l 536 508 l 389 615 l 404 442 l 264 442 l 281 614 l 133 508 l 63 632 l 229 707 l 63 782 l 133 906 l 281 797 l 264 986 l 404 986 l 386 797 l 536 906 l 607 782 z "},"+":{"ha":619,"x_min":57,"x_max":569,"o":"m 57 363 l 57 515 l 238 515 l 238 701 l 390 701 l 390 515 l 569 515 l 569 363 l 390 363 l 390 175 l 238 175 l 238 363 l 57 363 z "},",":{"ha":425,"x_min":57,"x_max":351,"o":"m 351 215 l 229 -117 l 57 -117 l 133 215 l 351 215 z "},"-":{"ha":617,"x_min":89,"x_max":543,"o":"m 543 521 l 543 368 l 89 368 l 89 521 l 543 521 z "},".":{"ha":376,"x_min":54,"x_max":322,"o":"m 189 -14 q 93 26 132 -14 q 54 125 54 67 q 94 221 54 181 q 189 261 133 261 q 282 220 242 261 q 322 125 322 179 q 282 27 322 68 q 189 -14 242 -14 z "},"/":{"ha":571,"x_min":43,"x_max":529,"o":"m 529 986 l 200 -69 l 43 -69 l 371 986 l 529 986 z "},":":{"ha":418,"x_min":82,"x_max":350,"o":"m 217 486 q 121 526 160 486 q 82 625 82 567 q 122 721 82 681 q 217 761 161 761 q 310 720 269 761 q 350 625 350 679 q 310 527 350 568 q 217 486 269 486 m 217 -14 q 121 26 160 -14 q 82 125 82 67 q 122 221 82 181 q 217 261 161 261 q 310 220 269 261 q 350 125 350 179 q 310 27 350 68 q 217 -14 269 -14 z "},";":{"ha":489,"x_min":81,"x_max":403,"o":"m 269 486 q 174 526 213 486 q 135 625 135 567 q 174 721 135 681 q 269 761 214 761 q 363 720 322 761 q 403 625 403 679 q 363 527 403 568 q 269 486 322 486 m 375 215 l 253 -117 l 81 -117 l 157 215 l 375 215 z "},"<":{"ha":536,"x_min":57,"x_max":435,"o":"m 57 289 l 57 464 l 435 696 l 435 493 l 238 381 l 435 264 l 435 49 l 57 289 z "},"=":{"ha":638,"x_min":92,"x_max":576,"o":"m 576 613 l 576 454 l 92 454 l 92 613 l 576 613 m 576 322 l 576 164 l 92 164 l 92 322 l 576 322 z "},">":{"ha":522,"x_min":94,"x_max":472,"o":"m 94 49 l 94 264 l 292 381 l 94 493 l 94 696 l 472 464 l 472 289 l 94 49 z "},"?":{"ha":681,"x_min":51,"x_max":629,"o":"m 424 247 l 185 247 q 178 307 178 279 q 196 405 178 360 q 240 482 214 450 q 292 543 267 514 q 336 606 318 572 q 354 674 354 639 q 335 726 354 706 q 286 746 317 746 q 121 693 231 746 l 51 917 q 333 1000 194 1000 q 548 923 467 1000 q 629 719 629 846 q 609 586 629 646 q 560 489 589 526 q 501 421 531 451 q 451 358 471 390 q 431 293 431 326 q 424 247 431 272 m 297 -103 q 201 -62 240 -103 q 163 36 163 -22 q 202 132 163 92 q 297 172 242 172 q 390 131 350 172 q 431 36 431 90 q 390 -62 431 -21 q 297 -103 350 -103 z "},"@":{"ha":1157,"x_min":65,"x_max":1118,"o":"m 208 -72 q 136 16 208 -72 q 65 390 65 104 q 213 852 65 676 q 603 1028 361 1028 q 985 876 851 1028 q 1118 467 1118 725 q 1042 188 1118 278 q 850 97 965 97 q 686 164 753 97 q 544 97 633 97 q 397 178 453 97 q 340 389 340 258 q 397 599 340 519 q 544 678 453 678 q 658 635 604 678 l 669 667 l 817 667 l 817 344 q 826 294 817 315 q 850 274 836 274 q 917 468 917 274 q 835 729 917 628 q 603 831 754 831 q 359 709 451 831 q 267 390 267 588 q 353 72 267 193 q 582 -49 440 -49 q 854 14 754 -49 l 911 -162 q 768 -224 858 -201 q 582 -247 678 -247 q 208 -72 350 -247 m 522 399 q 579 261 522 261 q 631 276 604 261 q 628 311 628 299 l 628 507 q 583 521 603 521 q 540 485 557 521 q 522 399 522 449 z "},"A":{"ha":869,"x_min":18,"x_max":851,"o":"m 571 -56 l 531 149 l 340 149 l 301 -56 l 18 -56 l 306 986 l 557 986 l 851 -56 l 571 -56 m 381 365 l 486 365 l 432 639 l 381 365 z "},"B":{"ha":871,"x_min":69,"x_max":813,"o":"m 696 551 q 813 267 813 458 q 726 34 813 124 q 490 -56 639 -56 l 69 -56 l 69 986 l 483 986 q 691 916 611 986 q 771 736 771 846 q 696 551 771 622 m 418 774 l 353 774 l 353 614 l 414 614 q 476 634 453 614 q 500 689 500 654 q 478 751 500 729 q 418 774 456 774 m 457 169 q 528 283 528 169 q 510 376 528 347 q 451 406 493 406 l 353 406 l 353 169 l 457 169 z "},"C":{"ha":856,"x_min":61,"x_max":810,"o":"m 722 676 q 692 692 718 679 q 659 709 667 706 q 629 722 651 713 q 594 733 607 731 q 563 740 582 736 q 524 743 543 743 q 397 665 447 743 q 346 457 346 586 q 397 263 346 340 q 522 185 447 185 q 765 235 650 185 l 799 -11 q 517 -69 667 -69 q 187 78 313 -69 q 61 457 61 225 q 188 851 61 701 q 524 1000 315 1000 q 677 973 599 1000 q 810 904 756 946 l 722 676 z "},"D":{"ha":896,"x_min":71,"x_max":832,"o":"m 438 986 q 723 840 614 986 q 832 457 832 693 q 725 85 832 226 q 444 -56 618 -56 l 71 -56 l 71 986 l 438 986 m 419 183 q 512 258 476 183 q 547 457 547 333 q 510 658 547 581 q 413 736 472 736 l 353 736 l 353 183 l 419 183 z "},"E":{"ha":736,"x_min":69,"x_max":658,"o":"m 353 186 l 658 186 l 658 -56 l 69 -56 l 69 986 l 638 986 l 638 742 l 353 742 l 353 632 l 635 632 l 635 413 l 353 413 l 353 186 z "},"F":{"ha":690,"x_min":71,"x_max":639,"o":"m 639 742 l 354 742 l 354 622 l 636 622 l 636 389 l 354 389 l 354 -56 l 71 -56 l 71 986 l 639 986 l 639 742 z "},"G":{"ha":861,"x_min":63,"x_max":814,"o":"m 814 583 l 814 -6 q 506 -68 676 -68 q 178 81 294 -68 q 63 479 63 229 q 183 857 63 714 q 499 1000 303 1000 q 799 906 668 1000 l 710 693 q 524 744 621 744 q 399 672 446 744 q 351 479 351 599 q 397 263 351 344 q 524 181 443 181 q 578 183 539 181 l 578 363 l 472 363 l 474 583 l 814 583 z "},"H":{"ha":893,"x_min":71,"x_max":819,"o":"m 544 986 l 819 986 l 819 -56 l 544 -56 l 544 385 l 346 385 l 346 -56 l 71 -56 l 71 986 l 346 986 l 346 633 l 544 633 l 544 986 z "},"I":{"ha":429,"x_min":71,"x_max":356,"o":"m 71 986 l 356 986 l 356 -56 l 71 -56 l 71 986 z "},"J":{"ha":743,"x_min":35,"x_max":635,"o":"m 635 986 l 635 286 q 538 22 635 114 q 275 -69 440 -69 q 35 3 142 -69 l 61 246 q 251 188 196 188 q 323 215 296 188 q 350 288 350 243 l 350 757 l 103 757 l 103 986 l 635 986 z "},"K":{"ha":850,"x_min":71,"x_max":840,"o":"m 840 -56 l 540 -56 l 356 396 l 356 -56 l 71 -56 l 71 986 l 356 986 l 356 631 l 540 986 l 826 986 l 589 542 l 840 -56 z "},"L":{"ha":669,"x_min":71,"x_max":643,"o":"m 356 186 l 643 186 l 643 -56 l 71 -56 l 71 986 l 356 986 l 356 186 z "},"M":{"ha":1118,"x_min":47,"x_max":1071,"o":"m 1071 -56 l 808 -56 l 763 529 l 603 250 l 504 250 l 349 524 l 303 -56 l 47 -56 l 139 986 l 358 986 l 553 604 l 749 986 l 964 986 l 1071 -56 z "},"N":{"ha":914,"x_min":71,"x_max":860,"o":"m 579 986 l 860 986 l 860 -56 l 701 -56 l 350 442 l 350 -56 l 71 -56 l 71 986 l 249 986 l 579 494 l 579 986 z "},"O":{"ha":994,"x_min":63,"x_max":932,"o":"m 499 -62 q 183 84 303 -62 q 63 469 63 231 q 183 854 63 708 q 499 1000 303 1000 q 813 854 693 1000 q 932 469 932 708 q 813 84 932 231 q 499 -62 693 -62 m 499 188 q 606 265 565 188 q 647 469 647 343 q 606 673 647 596 q 499 750 565 750 q 389 673 431 750 q 347 469 347 596 q 389 265 347 343 q 499 188 431 188 z "},"P":{"ha":842,"x_min":71,"x_max":808,"o":"m 508 986 q 726 895 643 986 q 808 656 808 804 q 722 412 808 504 q 496 319 636 319 l 353 319 l 353 -56 l 71 -56 l 71 986 l 508 986 m 444 544 q 517 575 489 544 q 544 656 544 606 q 517 732 544 703 q 444 761 489 761 l 353 761 l 353 544 l 444 544 z "},"Q":{"ha":1025,"x_min":63,"x_max":963,"o":"m 183 84 q 123 157 183 84 q 63 469 63 231 q 183 854 63 708 q 499 1000 303 1000 q 813 854 693 1000 q 932 469 932 708 q 797 65 932 215 q 963 39 874 39 l 907 -165 q 608 -49 735 -162 q 499 -62 558 -62 q 183 84 303 -62 m 347 469 q 377 292 347 364 q 457 196 407 219 q 435 300 440 254 l 568 347 q 600 253 582 290 q 647 469 647 333 q 606 673 647 596 q 499 750 565 750 q 389 673 431 750 q 347 469 347 596 z "},"R":{"ha":864,"x_min":71,"x_max":821,"o":"m 821 -56 l 513 -56 l 353 367 l 353 -56 l 71 -56 l 71 986 l 517 986 q 729 903 649 986 q 810 686 810 819 q 757 494 810 575 q 613 385 704 414 l 821 -56 m 429 768 l 353 768 l 353 588 l 429 588 q 498 614 471 588 q 525 681 525 640 q 498 743 525 718 q 429 768 471 768 z "},"S":{"ha":797,"x_min":60,"x_max":738,"o":"m 650 682 q 417 758 526 758 q 353 708 353 758 q 392 644 353 676 q 488 577 432 611 q 601 500 544 543 q 698 388 658 457 q 738 232 738 318 q 642 13 738 94 q 372 -68 546 -68 q 60 53 189 -68 l 115 272 q 364 174 263 174 q 453 238 453 174 q 425 297 453 267 q 356 351 397 326 q 265 412 314 376 q 175 486 217 447 q 106 586 133 525 q 78 718 78 647 q 165 926 78 851 q 404 1000 251 1000 q 579 974 493 1000 q 719 906 665 949 l 650 682 z "},"T":{"ha":700,"x_min":28,"x_max":665,"o":"m 665 986 l 665 743 l 489 743 l 489 -56 l 207 -56 l 207 743 l 28 743 l 28 986 l 665 986 z "},"U":{"ha":878,"x_min":63,"x_max":815,"o":"m 815 986 l 815 297 q 712 31 815 132 q 439 -69 608 -69 q 166 31 269 -69 q 63 297 63 132 l 63 986 l 344 986 l 344 285 q 370 209 344 238 q 439 181 396 181 q 508 209 482 181 q 533 285 533 238 l 533 986 l 815 986 z "},"V":{"ha":876,"x_min":21,"x_max":861,"o":"m 21 986 l 324 986 l 446 279 l 553 986 l 861 986 l 607 -56 l 275 -56 l 21 986 z "},"W":{"ha":1175,"x_min":26,"x_max":1151,"o":"m 26 986 l 282 986 l 379 335 l 543 943 l 633 943 l 796 349 l 892 986 l 1151 986 l 940 -56 l 711 -56 l 590 400 l 483 -56 l 225 -56 l 26 986 z "},"X":{"ha":758,"x_min":18,"x_max":746,"o":"m 746 986 l 547 517 l 742 -56 l 447 -56 l 379 310 l 313 -56 l 31 -56 l 203 517 l 18 986 l 299 986 l 381 679 l 450 986 l 746 986 z "},"Y":{"ha":843,"x_min":26,"x_max":836,"o":"m 836 986 l 567 483 l 567 -56 l 285 -56 l 285 478 l 26 986 l 300 986 l 425 701 l 549 986 l 836 986 z "},"Z":{"ha":771,"x_min":47,"x_max":713,"o":"m 47 -56 l 47 71 l 378 731 l 75 731 l 75 986 l 713 986 l 713 842 l 396 199 l 713 199 l 713 -56 l 47 -56 z "},"[":{"ha":501,"x_min":106,"x_max":436,"o":"m 436 788 l 317 788 l 317 129 l 436 129 l 436 -83 l 106 -83 l 106 1000 l 436 1000 l 436 788 z "},"\\":{"ha":567,"x_min":44,"x_max":531,"o":"m 44 917 l 203 917 l 531 0 l 374 0 l 44 917 z "},"]":{"ha":504,"x_min":68,"x_max":399,"o":"m 68 788 l 68 1000 l 399 1000 l 399 -83 l 68 -83 l 68 129 l 188 129 l 188 788 l 68 788 z "},"_":{"ha":656,"x_min":61,"x_max":599,"o":"m 599 0 l 599 -153 l 61 -153 l 61 0 l 599 0 z "},"`":{"ha":968,"x_min":164,"x_max":557,"o":"m 164 1194 l 450 1236 l 557 982 l 331 982 l 164 1194 z "},"a":{"ha":831,"x_min":28,"x_max":818,"o":"m 543 0 l 525 79 l 317 79 l 303 0 l 28 0 l 251 910 l 554 910 l 818 0 l 543 0 m 351 289 l 478 289 l 404 607 l 351 289 z "},"b":{"ha":811,"x_min":65,"x_max":760,"o":"m 65 0 l 65 910 l 442 910 q 641 840 567 910 q 715 656 715 769 q 646 476 715 543 q 760 274 760 404 q 680 72 760 143 q 461 0 600 0 l 65 0 m 340 529 l 372 529 q 458 619 458 529 q 438 676 458 656 q 376 697 417 697 l 340 697 l 340 529 m 340 225 l 422 225 q 473 242 454 225 q 492 288 492 260 q 474 332 492 315 q 422 349 456 349 l 340 349 l 340 225 z "},"c":{"ha":771,"x_min":57,"x_max":719,"o":"m 635 618 q 479 674 544 674 q 365 617 399 674 q 332 457 332 561 q 365 294 332 350 q 479 238 399 238 q 678 286 564 238 l 708 44 q 446 -12 608 -12 q 164 117 271 -12 q 57 457 57 246 q 166 795 57 667 q 453 924 275 924 q 719 835 628 924 l 635 618 z "},"d":{"ha":826,"x_min":65,"x_max":768,"o":"m 411 910 q 669 785 571 910 q 768 457 768 660 q 672 126 768 251 q 418 0 575 0 l 65 0 l 65 910 l 411 910 m 393 250 q 470 301 447 250 q 493 457 493 353 q 386 660 493 660 l 340 660 l 340 250 l 393 250 z "},"e":{"ha":663,"x_min":65,"x_max":618,"o":"m 340 238 l 618 238 l 618 0 l 65 0 l 65 910 l 597 910 l 597 672 l 340 672 l 340 533 l 608 533 l 608 314 l 340 314 l 340 238 z "},"f":{"ha":658,"x_min":65,"x_max":597,"o":"m 597 672 l 340 672 l 340 511 l 594 511 l 594 286 l 340 286 l 340 0 l 65 0 l 65 910 l 597 910 l 597 672 z "},"g":{"ha":790,"x_min":57,"x_max":754,"o":"m 754 503 l 754 42 q 446 -12 592 -12 q 164 117 271 -12 q 57 457 57 246 q 166 795 57 667 q 453 924 275 924 q 619 898 540 924 q 739 826 697 872 l 650 619 q 492 674 572 674 q 374 615 417 674 q 332 457 332 556 q 374 292 332 354 q 485 231 415 231 q 518 233 493 231 l 518 306 l 440 306 l 442 503 l 754 503 z "},"h":{"ha":864,"x_min":65,"x_max":799,"o":"m 524 910 l 799 910 l 799 0 l 524 0 l 524 285 l 340 285 l 340 0 l 65 0 l 65 910 l 340 910 l 340 522 l 524 522 l 524 910 z "},"i":{"ha":408,"x_min":65,"x_max":340,"o":"m 65 910 l 340 910 l 340 0 l 65 0 l 65 910 z "},"j":{"ha":700,"x_min":46,"x_max":606,"o":"m 606 910 l 606 294 q 519 69 606 154 q 290 -14 432 -15 q 46 51 151 -11 l 72 288 q 242 238 183 238 q 306 260 282 238 q 331 319 331 282 l 331 688 l 115 688 l 115 910 l 606 910 z "},"k":{"ha":810,"x_min":65,"x_max":794,"o":"m 794 0 l 500 0 l 340 279 l 340 0 l 65 0 l 65 910 l 340 910 l 340 519 l 515 910 l 789 910 l 549 411 l 794 0 z "},"l":{"ha":644,"x_min":65,"x_max":610,"o":"m 340 238 l 610 238 l 610 0 l 65 0 l 65 910 l 340 910 l 340 238 z "},"m":{"ha":1017,"x_min":38,"x_max":978,"o":"m 978 0 l 715 0 l 676 436 l 551 138 l 453 138 l 332 428 l 293 0 l 38 0 l 144 910 l 357 910 l 501 519 l 647 910 l 858 910 l 978 0 z "},"n":{"ha":826,"x_min":65,"x_max":764,"o":"m 488 910 l 764 910 l 764 0 l 610 0 l 340 388 l 340 0 l 65 0 l 65 910 l 239 910 l 488 522 l 488 910 z "},"o":{"ha":908,"x_min":57,"x_max":851,"o":"m 456 -14 q 167 115 276 -14 q 57 457 57 244 q 167 795 57 667 q 456 924 276 924 q 742 795 633 924 q 851 457 851 667 q 742 115 851 244 q 456 -14 633 -14 m 456 236 q 543 297 510 236 q 576 457 576 357 q 543 614 576 554 q 456 674 510 674 q 366 614 400 674 q 332 457 332 554 q 366 297 332 357 q 456 236 400 236 z "},"p":{"ha":789,"x_min":65,"x_max":754,"o":"m 468 910 q 677 824 600 910 q 754 593 754 738 q 674 359 754 447 q 456 271 593 271 l 340 271 l 340 0 l 65 0 l 65 910 l 468 910 m 404 496 q 467 522 444 496 q 490 593 490 549 q 468 660 490 635 q 404 685 446 685 l 340 685 l 340 496 l 404 496 z "},"q":{"ha":917,"x_min":57,"x_max":860,"o":"m 860 457 q 676 46 860 167 q 844 28 722 31 l 825 -175 q 612 -140 700 -174 q 471 -14 524 -107 l 458 -14 q 167 110 276 -14 q 57 457 57 235 q 167 801 57 678 q 458 924 276 924 q 751 800 642 924 q 860 457 860 676 m 332 457 q 370 296 332 356 q 458 236 408 236 q 546 297 508 236 q 583 457 583 357 q 545 614 583 554 q 458 674 507 674 q 370 615 408 674 q 332 457 332 556 z "},"r":{"ha":788,"x_min":65,"x_max":767,"o":"m 767 0 l 472 0 l 340 232 l 340 0 l 65 0 l 65 910 l 453 910 q 658 818 581 910 q 736 578 736 726 q 692 390 736 469 q 568 276 647 311 l 767 0 m 365 697 l 340 697 l 340 465 l 365 465 q 435 497 408 465 q 461 581 461 529 q 435 665 461 632 q 365 697 408 697 z "},"s":{"ha":744,"x_min":61,"x_max":694,"o":"m 613 617 q 385 693 471 693 q 349 681 363 693 q 336 653 336 669 q 373 597 336 624 q 463 544 410 571 q 568 484 515 518 q 658 392 621 450 q 693 258 694 333 q 608 57 692 128 q 368 -14 525 -14 q 64 86 200 -14 l 119 301 q 231 244 168 265 q 343 224 293 224 q 418 264 418 224 q 392 305 418 286 q 326 338 365 324 q 240 377 286 351 q 153 435 193 403 q 88 524 114 467 q 61 654 61 581 q 145 850 61 776 q 372 924 229 924 q 553 897 465 924 q 683 829 640 871 l 613 617 z "},"t":{"ha":681,"x_min":31,"x_max":643,"o":"m 643 910 l 643 672 l 475 672 l 475 0 l 199 0 l 199 672 l 31 672 l 31 910 l 643 910 z "},"u":{"ha":808,"x_min":58,"x_max":750,"o":"m 750 910 l 750 339 q 655 83 750 181 q 404 -14 560 -14 q 153 83 249 -14 q 58 339 58 181 l 58 910 l 333 910 l 333 326 q 353 261 333 286 q 404 236 372 236 q 456 261 436 236 q 475 326 475 286 l 475 910 l 750 910 z "},"v":{"ha":835,"x_min":19,"x_max":819,"o":"m 518 910 l 819 910 l 578 0 l 260 0 l 19 910 l 321 910 l 425 321 l 518 910 z "},"w":{"ha":1142,"x_min":25,"x_max":1122,"o":"m 25 910 l 278 910 l 358 358 l 522 850 l 618 850 l 782 365 l 861 910 l 1122 910 l 925 0 l 696 0 l 575 385 l 468 0 l 210 0 l 25 910 z "},"x":{"ha":750,"x_min":33,"x_max":735,"o":"m 735 910 l 543 433 l 729 0 l 442 0 l 382 235 l 322 0 l 47 0 l 213 433 l 33 910 l 307 910 l 383 599 l 446 910 l 735 910 z "},"y":{"ha":821,"x_min":24,"x_max":806,"o":"m 806 910 l 547 294 l 547 0 l 271 0 l 271 289 l 24 910 l 297 910 l 408 517 l 518 910 l 806 910 z "},"z":{"ha":721,"x_min":35,"x_max":672,"o":"m 35 0 l 35 113 l 325 660 l 47 660 l 47 910 l 658 910 l 658 751 l 389 250 l 672 250 l 672 0 l 35 0 z "},"{":{"ha":524,"x_min":36,"x_max":465,"o":"m 349 210 q 374 105 349 132 q 461 90 399 78 l 465 -103 q 128 117 128 -206 l 128 257 q 106 322 128 300 q 36 356 85 344 l 36 553 q 106 582 85 564 q 128 638 128 600 l 128 786 q 465 1006 128 1104 l 461 813 q 373 802 397 822 q 349 721 349 782 l 349 588 q 250 447 349 469 q 349 307 349 425 l 349 210 z "},"|":{"ha":439,"x_min":106,"x_max":333,"o":"m 106 -83 l 106 1000 l 333 1000 l 333 -83 l 106 -83 z "},"}":{"ha":524,"x_min":58,"x_max":488,"o":"m 175 210 l 175 307 q 274 447 175 425 q 175 588 175 469 l 175 721 q 151 802 175 782 q 63 813 126 822 l 58 1006 q 396 786 396 1104 l 396 638 q 417 582 396 600 q 488 553 439 564 l 488 356 q 417 322 439 344 q 396 257 396 300 l 396 117 q 58 -103 396 -206 l 63 90 q 150 105 125 78 q 175 210 175 132 z "},"~":{"ha":722,"x_min":69,"x_max":654,"o":"m 638 571 q 618 417 654 471 q 503 364 582 364 q 381 375 464 364 q 272 386 299 386 q 237 375 249 386 q 224 331 225 364 l 88 349 q 99 507 69 451 q 197 563 129 563 q 333 545 238 563 q 449 528 428 528 q 503 582 496 528 l 638 571 z "}," ":{"ha":111,"x_min":0,"x_max":0,"o":""},"¡":{"ha":444,"x_min":88,"x_max":360,"o":"m 357 868 q 317 773 357 814 q 224 732 276 732 q 128 772 168 732 q 89 868 89 813 q 128 967 89 926 q 224 1007 167 1007 q 317 966 276 1007 q 357 868 357 925 m 360 -85 l 88 -85 l 118 643 l 329 643 l 360 -85 z "},"¢":{"ha":721,"x_min":58,"x_max":669,"o":"m 58 457 q 122 721 58 614 q 303 864 186 828 l 288 1000 l 528 1000 l 514 874 q 669 793 607 856 l 585 576 q 457 632 511 632 q 367 584 400 632 q 333 457 333 536 q 367 328 333 376 q 457 279 400 279 q 628 328 514 279 l 658 86 q 504 35 589 49 l 518 -94 l 278 -94 l 293 49 q 119 198 181 89 q 58 457 58 307 z "},"£":{"ha":826,"x_min":64,"x_max":760,"o":"m 64 396 l 64 471 l 136 471 q 125 564 125 532 q 223 822 125 719 q 489 924 321 924 q 717 871 611 924 l 661 635 q 511 674 610 674 q 400 529 400 674 q 407 471 400 508 l 654 471 l 654 396 l 419 396 q 410 232 432 301 q 525 210 489 210 q 713 261 610 210 l 760 42 q 525 -14 646 -14 q 399 3 461 -14 q 308 19 336 19 q 226 14 265 19 q 141 -1 186 8 q 71 -14 96 -10 l 71 210 q 146 290 131 246 q 150 396 161 335 l 64 396 z "},"¤":{"ha":894,"x_min":57,"x_max":838,"o":"m 57 207 l 163 292 q 124 457 124 365 q 154 607 124 538 l 57 685 l 219 849 l 299 750 q 447 779 364 779 q 596 750 531 779 l 675 849 l 838 685 l 740 607 q 771 457 771 538 q 732 292 771 365 l 838 207 l 675 44 l 583 158 q 447 133 524 133 q 311 158 372 133 l 219 44 l 57 207 m 347 457 q 375 365 347 400 q 447 331 403 331 q 519 365 492 331 q 547 457 547 400 q 519 547 547 513 q 447 582 492 582 q 375 547 403 582 q 347 457 347 513 z "},"¥":{"ha":882,"x_min":49,"x_max":831,"o":"m 49 910 l 322 910 l 433 554 l 543 910 l 831 910 l 629 461 l 725 461 l 725 386 l 596 386 l 572 333 l 572 311 l 697 311 l 697 236 l 572 236 l 572 0 l 296 0 l 296 236 l 165 236 l 165 311 l 296 311 l 296 326 l 281 364 l 271 386 l 138 386 l 138 461 l 239 461 l 49 910 z "},"¦":{"ha":444,"x_min":108,"x_max":336,"o":"m 108 547 l 108 1000 l 336 1000 l 336 547 l 108 547 m 336 408 l 336 -83 l 108 -83 l 108 408 l 336 408 z "},"§":{"ha":754,"x_min":68,"x_max":701,"o":"m 615 721 q 388 797 474 797 q 355 785 367 797 q 343 757 343 774 q 369 714 343 732 q 435 685 396 696 q 521 653 475 675 q 606 601 567 631 q 670 514 644 572 q 696 376 696 456 l 435 424 q 408 466 435 450 q 340 488 381 482 q 251 512 299 494 q 163 554 204 529 q 95 635 122 579 q 68 772 68 692 q 152 958 68 888 q 375 1028 236 1028 q 556 1001 468 1028 q 686 933 643 975 l 615 721 m 335 435 q 362 391 335 408 q 430 365 389 374 q 519 338 471 356 q 608 296 567 319 q 675 220 649 272 q 701 96 701 168 q 610 -92 700 -21 q 376 -162 521 -162 q 72 -62 208 -162 l 128 153 q 239 96 176 117 q 351 75 301 75 q 406 85 385 75 q 426 114 426 96 q 400 149 426 136 q 335 167 374 161 q 250 190 296 172 q 165 235 204 208 q 100 325 126 263 q 74 478 74 388 l 335 435 z "},"¨":{"ha":958,"x_min":110,"x_max":689,"o":"m 238 979 q 147 1017 185 979 q 110 1111 110 1056 q 147 1202 110 1164 q 238 1240 185 1240 q 326 1201 288 1240 q 364 1111 364 1163 q 326 1018 364 1057 q 238 979 288 979 m 563 979 q 470 1017 507 979 q 433 1111 433 1056 q 471 1202 433 1164 q 563 1240 508 1240 q 651 1201 613 1240 q 689 1111 689 1163 q 651 1018 689 1057 q 563 979 613 979 z "},"©":{"ha":965,"x_min":63,"x_max":903,"o":"m 793 76 q 738 11 793 76 q 482 -54 683 -54 q 172 76 281 -54 q 63 449 63 207 q 172 821 63 690 q 482 951 281 951 q 793 819 683 951 q 903 449 903 688 q 793 76 903 207 m 482 99 q 688 190 617 99 q 760 449 760 281 q 688 708 760 617 q 482 799 617 799 q 276 708 349 799 q 204 449 204 617 q 276 190 204 281 q 482 99 349 99 m 596 514 q 513 543 546 543 q 463 517 479 543 q 446 449 446 490 q 465 381 446 407 q 521 354 483 354 q 618 378 565 354 l 639 232 q 499 188 578 188 q 324 256 386 188 q 263 449 263 324 q 324 652 263 581 q 497 724 385 724 q 661 661 599 724 l 596 514 z "},"ª":{"ha":567,"x_min":49,"x_max":517,"o":"m 346 390 l 336 435 l 226 435 l 219 390 l 49 390 l 171 910 l 371 910 l 517 390 l 346 390 m 246 561 l 310 561 l 272 732 l 246 561 z "},"«":{"ha":1006,"x_min":111,"x_max":881,"o":"m 111 385 l 111 522 l 263 704 l 494 704 l 281 458 l 494 194 l 263 194 l 111 385 m 497 385 l 497 522 l 649 704 l 881 704 l 667 458 l 881 194 l 649 194 l 497 385 z "},"®":{"ha":963,"x_min":63,"x_max":903,"o":"m 172 842 q 226 907 172 842 q 482 972 281 972 q 793 842 683 972 q 903 469 903 711 q 793 97 903 228 q 482 -33 683 -33 q 172 97 281 -33 q 63 469 63 228 q 172 842 63 711 m 482 819 q 276 728 349 819 q 204 469 204 638 q 276 210 204 301 q 482 119 349 119 q 688 210 617 119 q 760 469 760 301 q 688 728 760 638 q 482 819 617 819 m 317 224 l 317 736 l 511 736 q 642 694 594 736 q 689 582 689 653 q 663 493 689 533 q 592 433 638 453 l 688 224 l 535 224 l 464 411 l 464 224 l 317 224 m 464 547 l 510 547 q 546 583 546 547 q 510 615 546 615 l 464 615 l 464 547 z "},"¯":{"ha":911,"x_min":88,"x_max":444,"o":"m 88 1188 l 444 1188 l 444 979 l 88 979 l 88 1188 z "},"°":{"ha":589,"x_min":54,"x_max":535,"o":"m 296 444 q 121 510 188 444 q 54 685 54 576 q 121 858 54 792 q 296 924 188 924 q 469 858 403 924 q 535 685 535 792 q 469 510 535 576 q 296 444 403 444 m 234 756 q 223 742 234 756 q 211 685 211 729 q 234 614 211 640 q 296 588 257 588 q 355 615 332 588 q 378 685 378 642 q 355 755 378 728 q 296 782 332 782 q 234 756 257 782 z "},"±":{"ha":646,"x_min":86,"x_max":557,"o":"m 86 524 l 86 671 l 246 671 l 246 831 l 399 831 l 399 671 l 557 671 l 557 524 l 399 524 l 399 358 l 246 358 l 246 524 l 86 524 m 557 253 l 557 106 l 86 106 l 86 253 l 557 253 z "},"´":{"ha":931,"x_min":338,"x_max":725,"o":"m 725 1194 l 531 982 l 338 982 l 444 1236 l 725 1194 z "},"¶":{"ha":918,"x_min":51,"x_max":832,"o":"m 51 656 q 134 895 51 804 q 351 986 217 986 l 571 986 l 571 -83 l 386 -83 l 386 319 l 364 319 q 138 412 224 319 q 51 656 51 504 m 675 -83 l 675 986 l 832 986 l 832 -83 l 675 -83 z "},"·":{"ha":394,"x_min":64,"x_max":332,"o":"m 199 311 q 103 351 142 311 q 64 450 64 392 q 103 546 64 506 q 199 586 143 586 q 292 545 251 586 q 332 450 332 504 q 292 352 332 393 q 199 311 251 311 z "},"¸":{"ha":951,"x_min":135,"x_max":469,"o":"m 135 -206 l 165 -125 q 264 -149 203 -149 q 322 -122 321 -149 q 303 -99 322 -104 q 293 -97 297 -97 l 204 -97 l 229 8 l 356 8 l 342 -49 q 433 -63 396 -40 q 469 -136 469 -86 q 421 -218 469 -187 q 293 -249 372 -249 q 135 -206 203 -249 z "},"º":{"ha":561,"x_min":57,"x_max":504,"o":"m 282 389 q 119 463 181 389 q 57 657 57 536 q 119 850 57 776 q 282 924 181 924 q 443 850 382 924 q 504 657 504 776 q 443 463 504 536 q 282 389 382 389 m 243 574 q 251 559 243 574 q 282 543 258 543 q 319 574 306 543 q 333 656 333 604 q 319 740 333 708 q 281 772 304 772 q 242 741 257 772 q 228 657 228 710 q 243 574 228 606 z "},"»":{"ha":992,"x_min":111,"x_max":867,"o":"m 111 194 l 325 458 l 111 704 l 343 704 l 494 522 l 494 385 l 343 194 l 111 194 m 483 194 l 697 458 l 483 704 l 715 704 l 867 522 l 867 385 l 715 194 l 483 194 z "},"¼":{"ha":1218,"x_min":54,"x_max":1161,"o":"m 54 697 l 54 821 q 148 844 108 821 q 193 907 188 867 l 361 907 l 361 388 l 168 388 l 168 697 l 54 697 m 840 903 l 511 0 l 335 0 l 663 903 l 840 903 m 713 75 l 713 176 l 876 515 l 1103 515 l 1103 210 l 1161 210 l 1161 75 l 1103 75 l 1103 -4 l 917 -4 l 917 75 l 713 75 m 863 210 l 924 210 l 924 336 l 863 210 z "},"½":{"ha":1163,"x_min":54,"x_max":1160,"o":"m 54 697 l 54 821 q 148 844 108 821 q 193 907 188 867 l 361 907 l 361 388 l 168 388 l 168 697 l 54 697 m 836 903 l 507 0 l 331 0 l 658 903 l 836 903 m 754 315 q 805 465 751 408 q 954 522 858 522 q 1097 474 1043 522 q 1150 347 1150 426 q 1124 242 1150 289 q 1043 144 1097 196 l 1160 144 l 1160 -6 l 761 -6 l 761 85 q 843 169 801 128 q 906 231 885 211 q 946 272 928 251 q 971 306 964 292 q 978 335 978 319 q 944 368 978 368 q 908 315 908 368 l 754 315 z "},"¾":{"ha":1222,"x_min":56,"x_max":1167,"o":"m 61 878 q 236 924 143 924 q 372 885 322 924 q 422 781 422 846 q 367 672 422 703 q 440 549 440 638 q 383 433 440 478 q 228 389 325 389 q 56 433 121 389 l 74 572 q 189 536 131 536 q 260 569 260 536 q 244 588 260 581 q 206 596 229 596 l 146 596 l 146 715 l 199 715 q 243 743 243 715 q 194 772 243 772 q 108 750 151 772 l 61 878 m 863 903 l 533 0 l 357 0 l 685 903 l 863 903 m 718 75 l 718 176 l 882 515 l 1108 515 l 1108 210 l 1167 210 l 1167 75 l 1108 75 l 1108 -4 l 922 -4 l 922 75 l 718 75 m 868 210 l 929 210 l 929 336 l 868 210 z "},"¿":{"ha":682,"x_min":39,"x_max":617,"o":"m 371 1022 q 467 982 428 1022 q 506 883 506 942 q 466 788 506 828 q 371 747 426 747 q 278 788 318 747 q 238 883 238 829 q 278 981 238 940 q 371 1022 318 1022 m 244 672 l 483 672 q 490 613 490 640 q 472 515 490 560 q 428 438 454 469 q 376 376 403 406 q 332 314 350 347 q 314 246 314 281 q 333 194 314 214 q 382 174 351 174 q 547 226 438 174 l 617 3 q 335 -81 474 -81 q 120 -3 201 -81 q 39 200 39 74 q 59 333 39 274 q 108 431 79 393 q 167 499 138 468 q 217 561 197 529 q 238 626 238 593 q 244 672 238 647 z "},"À":{"ha":869,"x_min":18,"x_max":851,"o":"m 151 1278 l 438 1319 l 544 1065 l 318 1065 l 151 1278 m 571 -56 l 531 149 l 340 149 l 301 -56 l 18 -56 l 306 986 l 557 986 l 851 -56 l 571 -56 m 381 365 l 486 365 l 432 639 l 381 365 z "},"Á":{"ha":869,"x_min":18,"x_max":851,"o":"m 690 1282 l 497 1067 l 307 1067 l 413 1325 l 690 1282 m 571 -56 l 531 149 l 340 149 l 301 -56 l 18 -56 l 306 986 l 557 986 l 851 -56 l 571 -56 m 381 365 l 486 365 l 432 639 l 381 365 z "},"Â":{"ha":869,"x_min":18,"x_max":851,"o":"m 204 1075 l 314 1274 l 539 1274 l 653 1075 l 460 1075 l 424 1138 l 392 1075 l 204 1075 m 571 -56 l 531 149 l 340 149 l 301 -56 l 18 -56 l 306 986 l 557 986 l 851 -56 l 571 -56 m 381 365 l 486 365 l 432 639 l 381 365 z "},"Ã":{"ha":869,"x_min":18,"x_max":851,"o":"m 660 1274 q 640 1132 676 1183 q 525 1081 604 1081 q 480 1083 500 1081 q 428 1094 460 1086 q 385 1103 396 1101 q 336 1061 339 1111 l 200 1079 q 212 1226 182 1172 q 310 1279 242 1279 q 400 1262 350 1279 q 471 1244 450 1244 q 525 1285 517 1244 l 660 1274 m 571 -56 l 531 149 l 340 149 l 301 -56 l 18 -56 l 306 986 l 557 986 l 851 -56 l 571 -56 m 381 365 l 486 365 l 432 639 l 381 365 z "},"Ä":{"ha":869,"x_min":18,"x_max":851,"o":"m 269 1043 q 179 1081 217 1043 q 142 1175 142 1119 q 179 1266 142 1228 q 269 1304 217 1304 q 358 1265 319 1304 q 396 1175 396 1226 q 358 1082 396 1121 q 269 1043 319 1043 m 594 1043 q 502 1081 539 1043 q 465 1175 465 1119 q 503 1266 465 1228 q 594 1304 540 1304 q 683 1265 644 1304 q 721 1175 721 1226 q 683 1082 721 1121 q 594 1043 644 1043 m 571 -56 l 531 149 l 340 149 l 301 -56 l 18 -56 l 306 986 l 557 986 l 851 -56 l 571 -56 m 381 365 l 486 365 l 432 639 l 381 365 z "},"Å":{"ha":869,"x_min":18,"x_max":851,"o":"m 540 1079 q 519 1061 540 1079 q 431 1043 499 1043 q 322 1079 363 1043 q 281 1175 281 1115 q 322 1271 281 1235 q 431 1307 363 1307 q 540 1271 499 1307 q 581 1175 581 1235 q 540 1079 581 1115 m 431 1201 q 412 1201 431 1201 q 393 1175 393 1201 q 431 1149 393 1149 q 468 1175 468 1149 q 431 1201 468 1201 m 571 -56 l 531 149 l 340 149 l 301 -56 l 18 -56 l 306 986 l 557 986 l 851 -56 l 571 -56 m 381 365 l 486 365 l 432 639 l 381 365 z "},"Æ":{"ha":1257,"x_min":-4,"x_max":1190,"o":"m 885 186 l 1190 186 l 1190 -56 l 601 -56 l 601 192 l 374 192 l 267 -56 l -4 -56 l 478 986 l 1169 986 l 1169 742 l 885 742 l 885 644 l 1167 644 l 1167 425 l 885 425 l 885 186 m 471 414 l 601 414 l 601 715 l 471 414 z "},"Ç":{"ha":857,"x_min":63,"x_max":811,"o":"m 63 457 q 190 851 63 701 q 525 1000 317 1000 q 678 973 600 1000 q 811 904 757 946 l 724 676 q 694 692 719 679 q 660 709 668 706 q 631 722 653 713 q 596 733 608 731 q 564 740 583 736 q 525 743 544 743 q 398 665 449 743 q 347 457 347 586 q 398 263 347 340 q 524 185 449 185 q 767 235 651 185 l 800 -11 q 550 -69 693 -64 l 544 -100 q 635 -120 600 -97 q 669 -192 669 -143 q 621 -274 669 -243 q 493 -304 572 -304 q 335 -261 403 -304 l 365 -181 q 464 -204 403 -204 q 522 -178 521 -204 q 503 -154 522 -160 q 493 -153 497 -153 l 404 -153 l 426 -61 q 161 113 260 -28 q 63 457 63 254 z "},"È":{"ha":739,"x_min":72,"x_max":661,"o":"m 90 1278 l 376 1319 l 483 1065 l 257 1065 l 90 1278 m 356 186 l 661 186 l 661 -56 l 72 -56 l 72 986 l 640 986 l 640 742 l 356 742 l 356 632 l 638 632 l 638 413 l 356 413 l 356 186 z "},"É":{"ha":736,"x_min":69,"x_max":658,"o":"m 572 1282 l 379 1067 l 189 1067 l 294 1325 l 572 1282 m 353 186 l 658 186 l 658 -56 l 69 -56 l 69 986 l 638 986 l 638 742 l 353 742 l 353 632 l 635 632 l 635 413 l 353 413 l 353 186 z "},"Ê":{"ha":736,"x_min":69,"x_max":658,"o":"m 139 1075 l 249 1274 l 474 1274 l 588 1075 l 394 1075 l 358 1138 l 326 1075 l 139 1075 m 353 186 l 658 186 l 658 -56 l 69 -56 l 69 986 l 638 986 l 638 742 l 353 742 l 353 632 l 635 632 l 635 413 l 353 413 l 353 186 z "},"Ë":{"ha":736,"x_min":69,"x_max":658,"o":"m 199 1043 q 108 1081 146 1043 q 71 1175 71 1119 q 108 1266 71 1228 q 199 1304 146 1304 q 287 1265 249 1304 q 325 1175 325 1226 q 287 1082 325 1121 q 199 1043 249 1043 m 524 1043 q 431 1081 468 1043 q 394 1175 394 1119 q 432 1266 394 1228 q 524 1304 469 1304 q 612 1265 574 1304 q 650 1175 650 1226 q 612 1082 650 1121 q 524 1043 574 1043 m 353 186 l 658 186 l 658 -56 l 69 -56 l 69 986 l 638 986 l 638 742 l 353 742 l 353 632 l 635 632 l 635 413 l 353 413 l 353 186 z "},"Ì":{"ha":514,"x_min":47,"x_max":440,"o":"m 47 1278 l 333 1319 l 440 1065 l 214 1065 l 47 1278 m 156 986 l 440 986 l 440 -56 l 156 -56 l 156 986 z "},"Í":{"ha":506,"x_min":135,"x_max":521,"o":"m 521 1282 l 328 1067 l 138 1067 l 243 1325 l 521 1282 m 135 986 l 419 986 l 419 -56 l 135 -56 l 135 986 z "},"Î":{"ha":576,"x_min":28,"x_max":476,"o":"m 28 1075 l 138 1274 l 363 1274 l 476 1075 l 283 1075 l 247 1138 l 215 1075 l 28 1075 m 115 986 l 400 986 l 400 -56 l 115 -56 l 115 986 z "},"Ï":{"ha":613,"x_min":-11,"x_max":568,"o":"m 117 1043 q 26 1081 64 1043 q -11 1175 -11 1119 q 26 1266 -11 1228 q 117 1304 64 1304 q 205 1265 167 1304 q 243 1175 243 1226 q 205 1082 243 1121 q 117 1043 167 1043 m 442 1043 q 349 1081 386 1043 q 313 1175 313 1119 q 350 1266 313 1228 q 442 1304 388 1304 q 530 1265 492 1304 q 568 1175 568 1226 q 530 1082 568 1121 q 442 1043 492 1043 m 147 986 l 432 986 l 432 -56 l 147 -56 l 147 986 z "},"Ð":{"ha":949,"x_min":51,"x_max":885,"o":"m 51 406 l 51 547 l 124 547 l 124 986 l 490 986 q 776 840 667 986 q 885 457 885 693 q 778 85 885 226 q 497 -56 671 -56 l 124 -56 l 124 406 l 51 406 m 406 182 l 472 182 q 565 258 529 182 q 600 457 600 333 q 563 658 600 581 q 465 736 525 736 l 406 736 l 406 547 l 540 547 l 540 406 l 406 406 l 406 182 z "},"Ñ":{"ha":914,"x_min":71,"x_max":860,"o":"m 708 1274 q 689 1132 725 1183 q 574 1081 653 1081 q 528 1083 549 1081 q 476 1094 508 1086 q 433 1103 444 1101 q 385 1061 388 1111 l 249 1079 q 260 1226 231 1172 q 358 1279 290 1279 q 449 1262 399 1279 q 519 1244 499 1244 q 574 1285 565 1244 l 708 1274 m 579 986 l 860 986 l 860 -56 l 701 -56 l 350 442 l 350 -56 l 71 -56 l 71 986 l 249 986 l 579 494 l 579 986 z "},"Ò":{"ha":994,"x_min":63,"x_max":932,"o":"m 215 1278 l 501 1319 l 608 1065 l 382 1065 l 215 1278 m 499 -62 q 183 84 303 -62 q 63 469 63 231 q 183 854 63 708 q 499 1000 303 1000 q 813 854 693 1000 q 932 469 932 708 q 813 84 932 231 q 499 -62 693 -62 m 499 188 q 606 265 565 188 q 647 469 647 343 q 606 673 647 596 q 499 750 565 750 q 389 673 431 750 q 347 469 347 596 q 389 265 347 343 q 499 188 431 188 z "},"Ó":{"ha":994,"x_min":63,"x_max":932,"o":"m 732 1282 l 539 1067 l 349 1067 l 454 1325 l 732 1282 m 499 -62 q 183 84 303 -62 q 63 469 63 231 q 183 854 63 708 q 499 1000 303 1000 q 813 854 693 1000 q 932 469 932 708 q 813 84 932 231 q 499 -62 693 -62 m 499 188 q 606 265 565 188 q 647 469 647 343 q 606 673 647 596 q 499 750 565 750 q 389 673 431 750 q 347 469 347 596 q 389 265 347 343 q 499 188 431 188 z "},"Ô":{"ha":994,"x_min":63,"x_max":932,"o":"m 258 1075 l 368 1274 l 593 1274 l 707 1075 l 514 1075 l 478 1138 l 446 1075 l 258 1075 m 499 -62 q 183 84 303 -62 q 63 469 63 231 q 183 854 63 708 q 499 1000 303 1000 q 813 854 693 1000 q 932 469 932 708 q 813 84 932 231 q 499 -62 693 -62 m 499 188 q 606 265 565 188 q 647 469 647 343 q 606 673 647 596 q 499 750 565 750 q 389 673 431 750 q 347 469 347 596 q 389 265 347 343 q 499 188 431 188 z "},"Õ":{"ha":994,"x_min":63,"x_max":932,"o":"m 729 1274 q 710 1132 746 1183 q 594 1081 674 1081 q 549 1083 569 1081 q 497 1094 529 1086 q 454 1103 465 1101 q 406 1061 408 1111 l 269 1079 q 281 1226 251 1172 q 379 1279 311 1279 q 469 1262 419 1279 q 540 1244 519 1244 q 594 1285 586 1244 l 729 1274 m 499 -62 q 183 84 303 -62 q 63 469 63 231 q 183 854 63 708 q 499 1000 303 1000 q 813 854 693 1000 q 932 469 932 708 q 813 84 932 231 q 499 -62 693 -62 m 499 188 q 606 265 565 188 q 647 469 647 343 q 606 673 647 596 q 499 750 565 750 q 389 673 431 750 q 347 469 347 596 q 389 265 347 343 q 499 188 431 188 z "},"Ö":{"ha":994,"x_min":63,"x_max":932,"o":"m 314 1043 q 224 1081 261 1043 q 186 1175 186 1119 q 224 1266 186 1228 q 314 1304 261 1304 q 402 1265 364 1304 q 440 1175 440 1226 q 402 1082 440 1121 q 314 1043 364 1043 m 639 1043 q 547 1081 583 1043 q 510 1175 510 1119 q 547 1266 510 1228 q 639 1304 585 1304 q 727 1265 689 1304 q 765 1175 765 1226 q 727 1082 765 1121 q 639 1043 689 1043 m 499 -62 q 183 84 303 -62 q 63 469 63 231 q 183 854 63 708 q 499 1000 303 1000 q 813 854 693 1000 q 932 469 932 708 q 813 84 932 231 q 499 -62 693 -62 m 499 188 q 606 265 565 188 q 647 469 647 343 q 606 673 647 596 q 499 750 565 750 q 389 673 431 750 q 347 469 347 596 q 389 265 347 343 q 499 188 431 188 z "},"×":{"ha":619,"x_min":64,"x_max":569,"o":"m 64 300 l 203 439 l 71 572 l 183 683 l 315 551 l 456 692 l 569 578 l 429 438 l 563 304 l 451 190 l 317 325 l 178 186 l 64 300 z "},"Ø":{"ha":994,"x_min":63,"x_max":932,"o":"m 63 469 q 183 854 63 708 q 499 1000 303 1000 q 697 951 608 1000 l 749 1050 l 838 1050 l 763 906 q 932 469 932 760 q 813 84 932 231 q 499 -62 693 -62 q 283 -4 378 -62 l 221 -122 l 133 -122 l 221 43 q 63 469 63 190 m 347 469 q 367 322 347 388 l 574 717 q 499 750 542 750 q 389 673 431 750 q 347 469 347 596 m 408 235 q 499 188 447 188 q 606 265 565 188 q 647 469 647 343 q 621 639 647 567 l 408 235 z "},"Ù":{"ha":878,"x_min":63,"x_max":815,"o":"m 167 1278 l 453 1319 l 560 1065 l 333 1065 l 167 1278 m 815 986 l 815 297 q 712 31 815 132 q 439 -69 608 -69 q 166 31 269 -69 q 63 297 63 132 l 63 986 l 344 986 l 344 285 q 370 209 344 238 q 439 181 396 181 q 508 209 482 181 q 533 285 533 238 l 533 986 l 815 986 z "},"Ú":{"ha":878,"x_min":63,"x_max":815,"o":"m 689 1282 l 496 1067 l 306 1067 l 411 1325 l 689 1282 m 815 986 l 815 297 q 712 31 815 132 q 439 -69 608 -69 q 166 31 269 -69 q 63 297 63 132 l 63 986 l 344 986 l 344 285 q 370 209 344 238 q 439 181 396 181 q 508 209 482 181 q 533 285 533 238 l 533 986 l 815 986 z "},"Û":{"ha":878,"x_min":63,"x_max":815,"o":"m 203 1075 l 313 1274 l 538 1274 l 651 1075 l 458 1075 l 422 1138 l 390 1075 l 203 1075 m 815 986 l 815 297 q 712 31 815 132 q 439 -69 608 -69 q 166 31 269 -69 q 63 297 63 132 l 63 986 l 344 986 l 344 285 q 370 209 344 238 q 439 181 396 181 q 508 209 482 181 q 533 285 533 238 l 533 986 l 815 986 z "},"Ü":{"ha":878,"x_min":63,"x_max":815,"o":"m 275 1043 q 185 1081 222 1043 q 147 1175 147 1119 q 185 1266 147 1228 q 275 1304 222 1304 q 363 1265 325 1304 q 401 1175 401 1226 q 363 1082 401 1121 q 275 1043 325 1043 m 600 1043 q 508 1081 544 1043 q 471 1175 471 1119 q 508 1266 471 1228 q 600 1304 546 1304 q 688 1265 650 1304 q 726 1175 726 1226 q 688 1082 726 1121 q 600 1043 650 1043 m 815 986 l 815 297 q 712 31 815 132 q 439 -69 608 -69 q 166 31 269 -69 q 63 297 63 132 l 63 986 l 344 986 l 344 285 q 370 209 344 238 q 439 181 396 181 q 508 209 482 181 q 533 285 533 238 l 533 986 l 815 986 z "},"Ý":{"ha":843,"x_min":26,"x_max":836,"o":"m 669 1282 l 476 1067 l 286 1067 l 392 1325 l 669 1282 m 836 986 l 567 483 l 567 -56 l 285 -56 l 285 478 l 26 986 l 300 986 l 425 701 l 549 986 l 836 986 z "},"Þ":{"ha":853,"x_min":71,"x_max":800,"o":"m 500 808 q 717 717 635 808 q 800 478 800 626 q 714 234 800 326 q 488 142 628 142 l 353 142 l 353 -56 l 71 -56 l 71 986 l 353 986 l 353 808 l 500 808 m 436 367 q 508 397 481 367 q 536 478 536 428 q 508 554 536 525 q 436 583 481 583 l 353 583 l 353 367 l 436 367 z "},"ß":{"ha":917,"x_min":61,"x_max":886,"o":"m 706 619 q 734 528 706 571 q 796 455 763 485 q 858 371 829 425 q 886 250 886 317 q 817 58 886 129 q 635 -14 747 -14 q 388 58 494 -14 l 450 285 q 586 224 544 224 q 622 235 608 224 q 635 264 635 246 q 606 321 635 289 q 542 381 576 353 q 479 460 508 410 q 450 569 450 511 q 493 688 450 642 l 404 688 q 335 590 335 688 l 335 0 l 61 0 l 61 592 q 140 828 61 746 q 397 910 218 910 l 754 910 l 754 688 q 720 663 735 682 q 706 619 706 644 z "},"à":{"ha":831,"x_min":28,"x_max":818,"o":"m 160 1194 l 446 1236 l 553 982 l 326 982 l 160 1194 m 543 0 l 525 79 l 317 79 l 303 0 l 28 0 l 251 910 l 554 910 l 818 0 l 543 0 m 351 289 l 478 289 l 404 607 l 351 289 z "},"á":{"ha":831,"x_min":28,"x_max":818,"o":"m 686 1194 l 492 982 l 299 982 l 406 1236 l 686 1194 m 543 0 l 525 79 l 317 79 l 303 0 l 28 0 l 251 910 l 554 910 l 818 0 l 543 0 m 351 289 l 478 289 l 404 607 l 351 289 z "},"â":{"ha":831,"x_min":28,"x_max":818,"o":"m 179 1000 l 289 1199 l 514 1199 l 628 1000 l 435 1000 l 399 1063 l 367 1000 l 179 1000 m 543 0 l 525 79 l 317 79 l 303 0 l 28 0 l 251 910 l 554 910 l 818 0 l 543 0 m 351 289 l 478 289 l 404 607 l 351 289 z "},"ã":{"ha":831,"x_min":28,"x_max":818,"o":"m 622 1193 q 603 1051 639 1103 q 488 1000 567 1000 q 442 1003 463 1000 q 390 1013 422 1006 q 347 1022 358 1021 q 299 981 301 1031 l 163 999 q 174 1145 144 1092 q 272 1199 204 1199 q 363 1181 313 1199 q 433 1164 413 1164 q 488 1204 479 1164 l 622 1193 m 543 0 l 525 79 l 317 79 l 303 0 l 28 0 l 251 910 l 554 910 l 818 0 l 543 0 m 351 289 l 478 289 l 404 607 l 351 289 z "},"ä":{"ha":831,"x_min":28,"x_max":818,"o":"m 222 979 q 132 1017 169 979 q 94 1111 94 1056 q 132 1202 94 1164 q 222 1240 169 1240 q 310 1201 272 1240 q 349 1111 349 1163 q 310 1018 349 1057 q 222 979 272 979 m 547 979 q 455 1017 492 979 q 418 1111 418 1056 q 456 1202 418 1164 q 547 1240 493 1240 q 635 1201 597 1240 q 674 1111 674 1163 q 635 1018 674 1057 q 547 979 597 979 m 543 0 l 525 79 l 317 79 l 303 0 l 28 0 l 251 910 l 554 910 l 818 0 l 543 0 m 351 289 l 478 289 l 404 607 l 351 289 z "},"å":{"ha":831,"x_min":28,"x_max":818,"o":"m 515 999 q 494 981 515 999 q 406 963 474 963 q 297 999 338 963 q 256 1094 256 1035 q 297 1190 256 1154 q 406 1226 338 1226 q 515 1190 474 1226 q 556 1094 556 1154 q 515 999 556 1035 m 406 1121 q 387 1121 406 1121 q 368 1094 368 1121 q 406 1068 368 1068 q 443 1094 443 1068 q 406 1121 443 1121 m 543 0 l 525 79 l 317 79 l 303 0 l 28 0 l 251 910 l 554 910 l 818 0 l 543 0 m 351 289 l 478 289 l 404 607 l 351 289 z "},"æ":{"ha":1149,"x_min":4,"x_max":1088,"o":"m 4 0 l 400 910 l 1067 910 l 1067 672 l 810 672 l 810 531 l 1078 531 l 1078 311 l 810 311 l 810 238 l 1088 238 l 1088 0 l 538 0 l 538 101 l 319 101 l 279 0 l 4 0 m 403 311 l 538 311 l 538 651 l 535 646 l 403 311 z "},"ç":{"ha":771,"x_min":57,"x_max":719,"o":"m 57 457 q 166 795 57 667 q 453 924 275 924 q 719 835 628 924 l 635 618 q 479 674 544 674 q 365 617 399 674 q 332 457 332 561 q 365 294 332 350 q 479 238 399 238 q 678 286 564 238 l 708 44 q 469 -12 618 -6 l 461 -49 q 552 -63 515 -40 q 589 -136 589 -86 q 540 -218 589 -187 q 413 -249 492 -249 q 254 -206 322 -249 l 285 -125 q 383 -149 322 -149 q 442 -122 440 -149 q 422 -99 442 -104 q 413 -97 417 -97 l 324 -97 l 347 0 q 135 156 213 35 q 57 457 57 278 z "},"è":{"ha":711,"x_min":100,"x_max":667,"o":"m 100 1194 l 386 1236 l 493 982 l 267 982 l 100 1194 m 389 238 l 667 238 l 667 0 l 114 0 l 114 910 l 646 910 l 646 672 l 389 672 l 389 533 l 657 533 l 657 314 l 389 314 l 389 238 z "},"é":{"ha":663,"x_min":65,"x_max":618,"o":"m 578 1194 l 383 982 l 190 982 l 297 1236 l 578 1194 m 340 238 l 618 238 l 618 0 l 65 0 l 65 910 l 597 910 l 597 672 l 340 672 l 340 533 l 608 533 l 608 314 l 340 314 l 340 238 z "},"ê":{"ha":663,"x_min":65,"x_max":618,"o":"m 99 1000 l 208 1199 l 433 1199 l 547 1000 l 354 1000 l 318 1063 l 286 1000 l 99 1000 m 340 238 l 618 238 l 618 0 l 65 0 l 65 910 l 597 910 l 597 672 l 340 672 l 340 533 l 608 533 l 608 314 l 340 314 l 340 238 z "},"ë":{"ha":699,"x_min":65,"x_max":654,"o":"m 193 979 q 103 1017 140 979 q 65 1111 65 1056 q 103 1202 65 1164 q 193 1240 140 1240 q 281 1201 243 1240 q 319 1111 319 1163 q 281 1018 319 1057 q 193 979 243 979 m 518 979 q 426 1017 463 979 q 389 1111 389 1056 q 426 1202 389 1164 q 518 1240 464 1240 q 606 1201 568 1240 q 644 1111 644 1163 q 606 1018 644 1057 q 518 979 568 979 m 376 238 l 654 238 l 654 0 l 101 0 l 101 910 l 633 910 l 633 672 l 376 672 l 376 533 l 644 533 l 644 314 l 376 314 l 376 238 z "},"ì":{"ha":508,"x_min":35,"x_max":449,"o":"m 35 1194 l 321 1236 l 428 982 l 201 982 l 35 1194 m 174 910 l 449 910 l 449 0 l 174 0 l 174 910 z "},"í":{"ha":496,"x_min":114,"x_max":501,"o":"m 501 1194 l 307 982 l 114 982 l 221 1236 l 501 1194 m 117 910 l 392 910 l 392 0 l 117 0 l 117 910 z "},"î":{"ha":551,"x_min":21,"x_max":469,"o":"m 21 1000 l 131 1199 l 356 1199 l 469 1000 l 276 1000 l 240 1063 l 208 1000 l 21 1000 m 114 910 l 389 910 l 389 0 l 114 0 l 114 910 z "},"ï":{"ha":574,"x_min":-10,"x_max":569,"o":"m 118 979 q 28 1017 65 979 q -10 1111 -10 1056 q 28 1202 -10 1164 q 118 1240 65 1240 q 206 1201 168 1240 q 244 1111 244 1163 q 206 1018 244 1057 q 118 979 168 979 m 443 979 q 351 1017 388 979 q 314 1111 314 1056 q 351 1202 314 1164 q 443 1240 389 1240 q 531 1201 493 1240 q 569 1111 569 1163 q 531 1018 569 1057 q 443 979 493 979 m 146 910 l 421 910 l 421 0 l 146 0 l 146 910 z "},"ð":{"ha":890,"x_min":28,"x_max":832,"o":"m 28 385 l 28 526 l 129 526 l 129 910 l 475 910 q 733 785 635 910 q 832 457 832 660 q 735 126 832 251 q 482 0 639 0 l 129 0 l 129 385 l 28 385 m 404 238 l 457 238 q 557 457 557 238 q 450 660 557 660 l 404 660 l 404 526 l 517 526 l 517 385 l 404 385 l 404 238 z "},"ñ":{"ha":826,"x_min":65,"x_max":764,"o":"m 640 1190 q 621 1049 657 1100 q 506 997 585 997 q 460 1000 481 997 q 408 1010 440 1003 q 365 1019 376 1018 q 317 978 319 1028 l 181 996 q 192 1142 163 1089 q 290 1196 222 1196 q 381 1178 331 1196 q 451 1161 431 1161 q 506 1201 497 1161 l 640 1190 m 488 910 l 764 910 l 764 0 l 610 0 l 340 388 l 340 0 l 65 0 l 65 910 l 239 910 l 488 522 l 488 910 z "},"ò":{"ha":908,"x_min":57,"x_max":851,"o":"m 175 1194 l 461 1236 l 568 982 l 342 982 l 175 1194 m 456 -14 q 167 115 276 -14 q 57 457 57 244 q 167 795 57 667 q 456 924 276 924 q 742 795 633 924 q 851 457 851 667 q 742 115 851 244 q 456 -14 633 -14 m 456 236 q 543 297 510 236 q 576 457 576 357 q 543 614 576 554 q 456 674 510 674 q 366 614 400 674 q 332 457 332 554 q 366 297 332 357 q 456 236 400 236 z "},"ó":{"ha":908,"x_min":57,"x_max":851,"o":"m 701 1194 l 507 982 l 314 982 l 421 1236 l 701 1194 m 456 -14 q 167 115 276 -14 q 57 457 57 244 q 167 795 57 667 q 456 924 276 924 q 742 795 633 924 q 851 457 851 667 q 742 115 851 244 q 456 -14 633 -14 m 456 236 q 543 297 510 236 q 576 457 576 357 q 543 614 576 554 q 456 674 510 674 q 366 614 400 674 q 332 457 332 554 q 366 297 332 357 q 456 236 400 236 z "},"ô":{"ha":908,"x_min":57,"x_max":851,"o":"m 222 1000 l 332 1199 l 557 1199 l 671 1000 l 478 1000 l 442 1063 l 410 1000 l 222 1000 m 456 -14 q 167 115 276 -14 q 57 457 57 244 q 167 795 57 667 q 456 924 276 924 q 742 795 633 924 q 851 457 851 667 q 742 115 851 244 q 456 -14 633 -14 m 456 236 q 543 297 510 236 q 576 457 576 357 q 543 614 576 554 q 456 674 510 674 q 366 614 400 674 q 332 457 332 554 q 366 297 332 357 q 456 236 400 236 z "},"õ":{"ha":908,"x_min":57,"x_max":851,"o":"m 674 1190 q 654 1049 690 1100 q 539 997 618 997 q 494 1000 514 997 q 442 1010 474 1003 q 399 1019 410 1018 q 350 978 353 1028 l 214 996 q 226 1142 196 1089 q 324 1196 256 1196 q 414 1178 364 1196 q 485 1161 464 1161 q 539 1201 531 1161 l 674 1190 m 456 -14 q 167 115 276 -14 q 57 457 57 244 q 167 795 57 667 q 456 924 276 924 q 742 795 633 924 q 851 457 851 667 q 742 115 851 244 q 456 -14 633 -14 m 456 236 q 543 297 510 236 q 576 457 576 357 q 543 614 576 554 q 456 674 510 674 q 366 614 400 674 q 332 457 332 554 q 366 297 332 357 q 456 236 400 236 z "},"ö":{"ha":908,"x_min":57,"x_max":851,"o":"m 267 979 q 176 1017 214 979 q 139 1111 139 1056 q 176 1202 139 1164 q 267 1240 214 1240 q 355 1201 317 1240 q 393 1111 393 1163 q 355 1018 393 1057 q 267 979 317 979 m 592 979 q 499 1017 536 979 q 463 1111 463 1056 q 500 1202 463 1164 q 592 1240 538 1240 q 680 1201 642 1240 q 718 1111 718 1163 q 680 1018 718 1057 q 592 979 642 979 m 456 -14 q 167 115 276 -14 q 57 457 57 244 q 167 795 57 667 q 456 924 276 924 q 742 795 633 924 q 851 457 851 667 q 742 115 851 244 q 456 -14 633 -14 m 456 236 q 543 297 510 236 q 576 457 576 357 q 543 614 576 554 q 456 674 510 674 q 366 614 400 674 q 332 457 332 554 q 366 297 332 357 q 456 236 400 236 z "},"÷":{"ha":615,"x_min":57,"x_max":569,"o":"m 314 576 q 227 613 263 576 q 192 703 192 650 q 228 789 192 753 q 314 825 264 825 q 399 788 363 825 q 435 703 435 751 q 399 613 435 650 q 314 576 363 576 m 569 501 l 569 338 l 57 338 l 57 501 l 569 501 m 314 18 q 227 54 263 18 q 192 143 192 90 q 228 230 192 193 q 314 267 264 267 q 399 230 363 267 q 435 143 435 193 q 399 55 435 92 q 314 18 363 18 z "},"ø":{"ha":908,"x_min":57,"x_max":851,"o":"m 57 457 q 167 795 57 667 q 456 924 276 924 q 656 871 565 924 l 701 947 l 790 947 l 715 824 q 851 457 851 694 q 742 115 851 244 q 456 -14 633 -14 q 246 46 338 -14 l 196 -37 l 108 -37 l 188 93 q 57 457 57 224 m 332 457 q 344 354 332 397 l 519 646 q 456 674 492 674 q 366 614 400 674 q 332 457 332 554 m 383 272 q 456 236 413 236 q 543 297 510 236 q 576 457 576 357 q 561 568 576 519 l 383 272 z "},"ù":{"ha":808,"x_min":58,"x_max":750,"o":"m 122 1194 l 408 1236 l 515 982 l 289 982 l 122 1194 m 750 910 l 750 339 q 655 83 750 181 q 404 -14 560 -14 q 153 83 249 -14 q 58 339 58 181 l 58 910 l 333 910 l 333 326 q 353 261 333 286 q 404 236 372 236 q 456 261 436 236 q 475 326 475 286 l 475 910 l 750 910 z "},"ú":{"ha":808,"x_min":58,"x_max":750,"o":"m 678 1194 l 483 982 l 290 982 l 397 1236 l 678 1194 m 750 910 l 750 339 q 655 83 750 181 q 404 -14 560 -14 q 153 83 249 -14 q 58 339 58 181 l 58 910 l 333 910 l 333 326 q 353 261 333 286 q 404 236 372 236 q 456 261 436 236 q 475 326 475 286 l 475 910 l 750 910 z "},"û":{"ha":808,"x_min":58,"x_max":750,"o":"m 172 1000 l 282 1199 l 507 1199 l 621 1000 l 428 1000 l 392 1063 l 360 1000 l 172 1000 m 750 910 l 750 339 q 655 83 750 181 q 404 -14 560 -14 q 153 83 249 -14 q 58 339 58 181 l 58 910 l 333 910 l 333 326 q 353 261 333 286 q 404 236 372 236 q 456 261 436 236 q 475 326 475 286 l 475 910 l 750 910 z "},"ü":{"ha":808,"x_min":58,"x_max":750,"o":"m 229 979 q 139 1017 176 979 q 101 1111 101 1056 q 139 1202 101 1164 q 229 1240 176 1240 q 317 1201 279 1240 q 356 1111 356 1163 q 317 1018 356 1057 q 229 979 279 979 m 554 979 q 462 1017 499 979 q 425 1111 425 1056 q 463 1202 425 1164 q 554 1240 500 1240 q 642 1201 604 1240 q 681 1111 681 1163 q 642 1018 681 1057 q 554 979 604 979 m 750 910 l 750 339 q 655 83 750 181 q 404 -14 560 -14 q 153 83 249 -14 q 58 339 58 181 l 58 910 l 333 910 l 333 326 q 353 261 333 286 q 404 236 372 236 q 456 261 436 236 q 475 326 475 286 l 475 910 l 750 910 z "},"ý":{"ha":821,"x_min":24,"x_max":806,"o":"m 697 1194 l 503 982 l 310 982 l 417 1236 l 697 1194 m 806 910 l 547 294 l 547 0 l 271 0 l 271 289 l 24 910 l 297 910 l 408 517 l 518 910 l 806 910 z "},"þ":{"ha":824,"x_min":65,"x_max":775,"o":"m 489 765 q 697 682 618 765 q 775 463 775 599 q 693 239 775 324 q 476 154 611 154 l 340 154 l 340 0 l 65 0 l 65 910 l 340 910 l 340 765 l 489 765 m 425 379 q 488 402 464 379 q 511 463 511 425 q 488 519 511 497 q 425 540 464 540 l 340 540 l 340 379 l 425 379 z "},"ÿ":{"ha":821,"x_min":24,"x_max":806,"o":"m 238 979 q 147 1017 185 979 q 110 1111 110 1056 q 147 1202 110 1164 q 238 1240 185 1240 q 326 1201 288 1240 q 364 1111 364 1163 q 326 1018 364 1057 q 238 979 288 979 m 563 979 q 470 1017 507 979 q 433 1111 433 1056 q 471 1202 433 1164 q 563 1240 508 1240 q 651 1201 613 1240 q 689 1111 689 1163 q 651 1018 689 1057 q 563 979 613 979 m 806 910 l 547 294 l 547 0 l 271 0 l 271 289 l 24 910 l 297 910 l 408 517 l 518 910 l 806 910 z "},"Ā":{"ha":869,"x_min":18,"x_max":851,"o":"m 247 1264 l 604 1264 l 604 1056 l 247 1056 l 247 1264 m 571 -56 l 531 149 l 340 149 l 301 -56 l 18 -56 l 306 986 l 557 986 l 851 -56 l 571 -56 m 381 365 l 486 365 l 432 639 l 381 365 z "},"ā":{"ha":831,"x_min":28,"x_max":818,"o":"m 222 1188 l 579 1188 l 579 979 l 222 979 l 222 1188 m 543 0 l 525 79 l 317 79 l 303 0 l 28 0 l 251 910 l 554 910 l 818 0 l 543 0 m 351 289 l 478 289 l 404 607 l 351 289 z "},"Ă":{"ha":869,"x_min":18,"x_max":851,"o":"m 650 1144 q 554 1091 615 1111 q 428 1071 493 1071 q 301 1091 361 1071 q 207 1144 240 1111 l 261 1300 q 428 1247 318 1247 q 596 1300 539 1247 l 650 1144 m 571 -56 l 531 149 l 340 149 l 301 -56 l 18 -56 l 306 986 l 557 986 l 851 -56 l 571 -56 m 381 365 l 486 365 l 432 639 l 381 365 z "},"ă":{"ha":831,"x_min":28,"x_max":818,"o":"m 622 1061 q 526 1008 588 1028 q 400 988 465 988 q 273 1008 333 988 q 179 1061 213 1028 l 233 1217 q 400 1164 290 1164 q 568 1217 511 1164 l 622 1061 m 543 0 l 525 79 l 317 79 l 303 0 l 28 0 l 251 910 l 554 910 l 818 0 l 543 0 m 351 289 l 478 289 l 404 607 l 351 289 z "},"Ą":{"ha":869,"x_min":18,"x_max":851,"o":"m 18 -56 l 306 986 l 557 986 l 851 -56 l 796 -56 q 753 -121 753 -87 q 796 -158 753 -161 l 796 -296 q 733 -304 767 -304 q 625 -269 665 -304 q 585 -181 585 -233 q 633 -56 585 -115 l 571 -56 l 531 149 l 340 149 l 301 -56 l 18 -56 m 381 365 l 486 365 l 432 639 l 381 365 z "},"ą":{"ha":831,"x_min":28,"x_max":818,"o":"m 28 0 l 251 910 l 554 910 l 818 0 l 768 0 q 725 -65 725 -32 q 768 -103 725 -106 l 768 -240 q 706 -249 739 -249 q 597 -213 638 -249 q 557 -125 557 -178 q 606 0 557 -60 l 543 0 l 525 79 l 317 79 l 303 0 l 28 0 m 351 289 l 478 289 l 404 607 l 351 289 z "},"Ć":{"ha":856,"x_min":61,"x_max":810,"o":"m 746 1282 l 553 1067 l 363 1067 l 468 1325 l 746 1282 m 722 676 q 692 692 718 679 q 659 709 667 706 q 629 722 651 713 q 594 733 607 731 q 563 740 582 736 q 524 743 543 743 q 397 665 447 743 q 346 457 346 586 q 397 263 346 340 q 522 185 447 185 q 765 235 650 185 l 799 -11 q 517 -69 667 -69 q 187 78 313 -69 q 61 457 61 225 q 188 851 61 701 q 524 1000 315 1000 q 677 973 599 1000 q 810 904 756 946 l 722 676 z "},"ć":{"ha":771,"x_min":57,"x_max":719,"o":"m 704 1194 l 510 982 l 317 982 l 424 1236 l 704 1194 m 635 618 q 479 674 544 674 q 365 617 399 674 q 332 457 332 561 q 365 294 332 350 q 479 238 399 238 q 678 286 564 238 l 708 44 q 446 -12 608 -12 q 164 117 271 -12 q 57 457 57 246 q 166 795 57 667 q 453 924 275 924 q 719 835 628 924 l 635 618 z "},"Ċ":{"ha":856,"x_min":61,"x_max":810,"o":"m 369 1185 q 407 1276 369 1238 q 497 1314 444 1314 q 585 1275 547 1314 q 624 1185 624 1236 q 585 1092 624 1131 q 497 1053 547 1053 q 407 1091 444 1053 q 369 1185 369 1129 m 722 676 q 692 692 718 679 q 659 709 667 706 q 629 722 651 713 q 594 733 607 731 q 563 740 582 736 q 524 743 543 743 q 397 665 447 743 q 346 457 346 586 q 397 263 346 340 q 522 185 447 185 q 765 235 650 185 l 799 -11 q 517 -69 667 -69 q 187 78 313 -69 q 61 457 61 225 q 188 851 61 701 q 524 1000 315 1000 q 677 973 599 1000 q 810 904 756 946 l 722 676 z "},"ċ":{"ha":771,"x_min":57,"x_max":719,"o":"m 288 1129 q 325 1220 288 1182 q 415 1258 363 1258 q 503 1219 465 1258 q 542 1129 542 1181 q 503 1036 542 1075 q 415 997 465 997 q 325 1035 363 997 q 288 1129 288 1074 m 635 618 q 479 674 544 674 q 365 617 399 674 q 332 457 332 561 q 365 294 332 350 q 479 238 399 238 q 678 286 564 238 l 708 44 q 446 -12 608 -12 q 164 117 271 -12 q 57 457 57 246 q 166 795 57 667 q 453 924 275 924 q 719 835 628 924 l 635 618 z "},"Č":{"ha":856,"x_min":61,"x_max":810,"o":"m 283 1257 l 460 1299 l 508 1210 l 560 1299 l 724 1257 l 610 1072 l 392 1072 l 283 1257 m 722 676 q 692 692 718 679 q 659 709 667 706 q 629 722 651 713 q 594 733 607 731 q 563 740 582 736 q 524 743 543 743 q 397 665 447 743 q 346 457 346 586 q 397 263 346 340 q 522 185 447 185 q 765 235 650 185 l 799 -11 q 517 -69 667 -69 q 187 78 313 -69 q 61 457 61 225 q 188 851 61 701 q 524 1000 315 1000 q 677 973 599 1000 q 810 904 756 946 l 722 676 z "},"č":{"ha":771,"x_min":57,"x_max":719,"o":"m 206 1176 l 382 1218 l 431 1129 l 482 1218 l 646 1176 l 532 992 l 314 992 l 206 1176 m 635 618 q 479 674 544 674 q 365 617 399 674 q 332 457 332 561 q 365 294 332 350 q 479 238 399 238 q 678 286 564 238 l 708 44 q 446 -12 608 -12 q 164 117 271 -12 q 57 457 57 246 q 166 795 57 667 q 453 924 275 924 q 719 835 628 924 l 635 618 z "},"Ď":{"ha":896,"x_min":71,"x_max":832,"o":"m 158 1257 l 335 1299 l 383 1210 l 435 1299 l 599 1257 l 485 1072 l 267 1072 l 158 1257 m 438 986 q 723 840 614 986 q 832 457 832 693 q 725 85 832 226 q 444 -56 618 -56 l 71 -56 l 71 986 l 438 986 m 419 183 q 512 258 476 183 q 547 457 547 333 q 510 658 547 581 q 413 736 472 736 l 353 736 l 353 183 l 419 183 z "},"ď":{"ha":826,"x_min":65,"x_max":768,"o":"m 119 1181 l 296 1222 l 344 1133 l 396 1222 l 560 1181 l 446 996 l 228 996 l 119 1181 m 411 910 q 669 785 571 910 q 768 457 768 660 q 672 126 768 251 q 418 0 575 0 l 65 0 l 65 910 l 411 910 m 393 250 q 470 301 447 250 q 493 457 493 353 q 386 660 493 660 l 340 660 l 340 250 l 393 250 z "},"Đ":{"ha":949,"x_min":51,"x_max":885,"o":"m 51 406 l 51 547 l 124 547 l 124 986 l 490 986 q 776 840 667 986 q 885 457 885 693 q 778 85 885 226 q 497 -56 671 -56 l 124 -56 l 124 406 l 51 406 m 406 182 l 472 182 q 565 258 529 182 q 600 457 600 333 q 563 658 600 581 q 465 736 525 736 l 406 736 l 406 547 l 540 547 l 540 406 l 406 406 l 406 182 z "},"đ":{"ha":890,"x_min":28,"x_max":832,"o":"m 28 385 l 28 526 l 129 526 l 129 910 l 475 910 q 733 785 635 910 q 832 457 832 660 q 735 126 832 251 q 482 0 639 0 l 129 0 l 129 385 l 28 385 m 404 238 l 457 238 q 557 457 557 238 q 450 660 557 660 l 404 660 l 404 526 l 517 526 l 517 385 l 404 385 l 404 238 z "},"Ē":{"ha":736,"x_min":69,"x_max":658,"o":"m 160 1264 l 517 1264 l 517 1056 l 160 1056 l 160 1264 m 353 186 l 658 186 l 658 -56 l 69 -56 l 69 986 l 638 986 l 638 742 l 353 742 l 353 632 l 635 632 l 635 413 l 353 413 l 353 186 z "},"ē":{"ha":663,"x_min":65,"x_max":618,"o":"m 133 1188 l 490 1188 l 490 979 l 133 979 l 133 1188 m 340 238 l 618 238 l 618 0 l 65 0 l 65 910 l 597 910 l 597 672 l 340 672 l 340 533 l 608 533 l 608 314 l 340 314 l 340 238 z "},"Ė":{"ha":736,"x_min":69,"x_max":658,"o":"m 232 1185 q 269 1276 232 1238 q 360 1314 307 1314 q 448 1275 410 1314 q 486 1185 486 1236 q 448 1092 486 1131 q 360 1053 410 1053 q 269 1091 307 1053 q 232 1185 232 1129 m 353 186 l 658 186 l 658 -56 l 69 -56 l 69 986 l 638 986 l 638 742 l 353 742 l 353 632 l 635 632 l 635 413 l 353 413 l 353 186 z "},"ė":{"ha":663,"x_min":65,"x_max":618,"o":"m 190 1115 q 228 1206 190 1168 q 318 1244 265 1244 q 406 1206 368 1244 q 444 1115 444 1167 q 406 1022 444 1061 q 318 983 368 983 q 228 1022 265 983 q 190 1115 190 1060 m 340 238 l 618 238 l 618 0 l 65 0 l 65 910 l 597 910 l 597 672 l 340 672 l 340 533 l 608 533 l 608 314 l 340 314 l 340 238 z "},"Ę":{"ha":735,"x_min":69,"x_max":658,"o":"m 69 -56 l 69 986 l 638 986 l 638 750 l 353 750 l 353 632 l 635 632 l 635 413 l 353 413 l 353 186 l 658 186 l 658 -56 q 615 -121 615 -87 q 658 -158 615 -161 l 658 -296 q 596 -304 629 -304 q 488 -269 528 -304 q 447 -181 447 -233 q 496 -56 447 -115 l 69 -56 z "},"ę":{"ha":663,"x_min":65,"x_max":618,"o":"m 65 0 l 65 910 l 597 910 l 597 672 l 340 672 l 340 533 l 608 533 l 608 314 l 340 314 l 340 238 l 618 238 l 618 0 q 575 -65 575 -32 q 618 -103 575 -106 l 618 -240 q 556 -249 589 -249 q 447 -213 488 -249 q 407 -125 407 -178 q 456 0 407 -60 l 65 0 z "},"Ě":{"ha":736,"x_min":69,"x_max":658,"o":"m 132 1257 l 308 1299 l 357 1210 l 408 1299 l 572 1257 l 458 1072 l 240 1072 l 132 1257 m 353 186 l 658 186 l 658 -56 l 69 -56 l 69 986 l 638 986 l 638 742 l 353 742 l 353 632 l 635 632 l 635 413 l 353 413 l 353 186 z "},"ě":{"ha":663,"x_min":65,"x_max":618,"o":"m 104 1167 l 281 1208 l 329 1119 l 381 1208 l 544 1167 l 431 982 l 213 982 l 104 1167 m 340 238 l 618 238 l 618 0 l 65 0 l 65 910 l 597 910 l 597 672 l 340 672 l 340 533 l 608 533 l 608 314 l 340 314 l 340 238 z "},"Ğ":{"ha":861,"x_min":63,"x_max":814,"o":"m 681 1144 q 585 1091 646 1111 q 458 1071 524 1071 q 331 1091 392 1071 q 238 1144 271 1111 l 292 1300 q 458 1247 349 1247 q 626 1300 569 1247 l 681 1144 m 814 583 l 814 -6 q 506 -68 676 -68 q 178 81 294 -68 q 63 479 63 229 q 183 857 63 714 q 499 1000 303 1000 q 799 906 668 1000 l 710 693 q 524 744 621 744 q 399 672 446 744 q 351 479 351 599 q 397 263 351 344 q 524 181 443 181 q 578 183 539 181 l 578 363 l 472 363 l 474 583 l 814 583 z "},"ğ":{"ha":790,"x_min":57,"x_max":754,"o":"m 649 1061 q 553 1008 614 1028 q 426 988 492 988 q 299 1008 360 988 q 206 1061 239 1028 l 260 1217 q 426 1164 317 1164 q 594 1217 538 1164 l 649 1061 m 754 503 l 754 42 q 446 -12 592 -12 q 164 117 271 -12 q 57 457 57 246 q 166 795 57 667 q 453 924 275 924 q 619 898 540 924 q 739 826 697 872 l 650 619 q 492 674 572 674 q 374 615 417 674 q 332 457 332 556 q 374 292 332 354 q 485 231 415 231 q 518 233 493 231 l 518 306 l 440 306 l 442 503 l 754 503 z "},"Ġ":{"ha":861,"x_min":63,"x_max":814,"o":"m 344 1185 q 382 1276 344 1238 q 472 1314 419 1314 q 560 1275 522 1314 q 599 1185 599 1236 q 560 1092 599 1131 q 472 1053 522 1053 q 382 1091 419 1053 q 344 1185 344 1129 m 814 583 l 814 -6 q 506 -68 676 -68 q 178 81 294 -68 q 63 479 63 229 q 183 857 63 714 q 499 1000 303 1000 q 799 906 668 1000 l 710 693 q 524 744 621 744 q 399 672 446 744 q 351 479 351 599 q 397 263 351 344 q 524 181 443 181 q 578 183 539 181 l 578 363 l 472 363 l 474 583 l 814 583 z "},"ġ":{"ha":790,"x_min":57,"x_max":754,"o":"m 310 1129 q 347 1220 310 1182 q 438 1258 385 1258 q 526 1219 488 1258 q 564 1129 564 1181 q 526 1036 564 1075 q 438 997 488 997 q 347 1035 385 997 q 310 1129 310 1074 m 754 503 l 754 42 q 446 -12 592 -12 q 164 117 271 -12 q 57 457 57 246 q 166 795 57 667 q 453 924 275 924 q 619 898 540 924 q 739 826 697 872 l 650 619 q 492 674 572 674 q 374 615 417 674 q 332 457 332 556 q 374 292 332 354 q 485 231 415 231 q 518 233 493 231 l 518 306 l 440 306 l 442 503 l 754 503 z "},"Ģ":{"ha":861,"x_min":63,"x_max":814,"o":"m 814 583 l 814 -6 q 506 -68 676 -68 q 178 81 294 -68 q 63 479 63 229 q 183 857 63 714 q 499 1000 303 1000 q 799 906 668 1000 l 710 693 q 524 744 621 744 q 399 672 446 744 q 351 479 351 599 q 397 263 351 344 q 524 181 443 181 q 578 183 539 181 l 578 363 l 472 363 l 474 583 l 814 583 m 688 -140 l 524 -376 l 336 -376 l 453 -140 l 688 -140 z "},"ģ":{"ha":790,"x_min":57,"x_max":754,"o":"m 754 503 l 754 42 q 446 -12 592 -12 q 164 117 271 -12 q 57 457 57 246 q 166 795 57 667 q 453 924 275 924 q 619 898 540 924 q 739 826 697 872 l 650 619 q 492 674 572 674 q 374 615 417 674 q 332 457 332 556 q 374 292 332 354 q 485 231 415 231 q 518 233 493 231 l 518 306 l 440 306 l 442 503 l 754 503 m 610 -86 l 446 -322 l 258 -322 l 375 -86 l 610 -86 z "},"Ħ":{"ha":999,"x_min":51,"x_max":938,"o":"m 51 721 l 51 835 l 125 835 l 125 986 l 400 986 l 400 835 l 599 835 l 599 986 l 874 986 l 874 835 l 938 835 l 938 721 l 874 721 l 874 -56 l 599 -56 l 599 385 l 400 385 l 400 -56 l 125 -56 l 125 721 l 51 721 m 400 633 l 599 633 l 599 721 l 400 721 l 400 633 z "},"ħ":{"ha":943,"x_min":40,"x_max":899,"o":"m 40 649 l 40 790 l 97 790 l 97 910 l 372 910 l 372 790 l 556 790 l 556 910 l 831 910 l 831 790 l 899 790 l 899 649 l 831 649 l 831 0 l 556 0 l 556 285 l 372 285 l 372 0 l 97 0 l 97 649 l 40 649 m 372 522 l 556 522 l 556 649 l 372 649 l 372 522 z "},"Ĩ":{"ha":572,"x_min":83,"x_max":578,"o":"m 561 1269 q 542 1128 578 1179 q 426 1076 506 1076 q 381 1079 401 1076 q 329 1090 361 1082 q 286 1099 297 1097 q 238 1057 240 1107 l 101 1075 q 113 1222 83 1168 q 211 1275 143 1275 q 301 1258 251 1275 q 372 1240 351 1240 q 426 1281 418 1240 l 561 1269 m 199 986 l 483 986 l 483 -56 l 199 -56 l 199 986 z "},"ĩ":{"ha":547,"x_min":89,"x_max":583,"o":"m 567 1190 q 547 1049 583 1100 q 432 997 511 997 q 387 1000 407 997 q 335 1010 367 1003 q 292 1019 303 1018 q 243 978 246 1028 l 107 996 q 119 1142 89 1089 q 217 1196 149 1196 q 307 1178 257 1196 q 378 1161 357 1161 q 432 1201 424 1161 l 567 1190 m 203 910 l 478 910 l 478 0 l 203 0 l 203 910 z "},"Ī":{"ha":486,"x_min":58,"x_max":415,"o":"m 58 1264 l 415 1264 l 415 1056 l 58 1056 l 58 1264 m 99 986 l 383 986 l 383 -56 l 99 -56 l 99 986 z "},"ī":{"ha":463,"x_min":51,"x_max":408,"o":"m 51 1188 l 408 1188 l 408 979 l 51 979 l 51 1188 m 99 910 l 374 910 l 374 0 l 99 0 l 99 910 z "},"Į":{"ha":429,"x_min":71,"x_max":356,"o":"m 71 -56 l 71 986 l 356 986 l 356 -56 l 301 -56 q 258 -121 258 -87 q 301 -158 258 -161 l 301 -296 q 239 -304 272 -304 q 131 -269 171 -304 q 90 -181 90 -233 q 139 -56 90 -115 l 71 -56 z "},"į":{"ha":407,"x_min":65,"x_max":340,"o":"m 65 0 l 65 910 l 340 910 l 340 0 l 285 0 q 242 -65 242 -32 q 285 -103 242 -106 l 285 -240 q 222 -249 256 -249 q 114 -213 154 -249 q 74 -125 74 -178 q 122 0 74 -60 l 65 0 z "},"İ":{"ha":446,"x_min":71,"x_max":356,"o":"m 86 1185 q 124 1276 86 1238 q 214 1314 161 1314 q 302 1275 264 1314 q 340 1185 340 1236 q 302 1092 340 1131 q 214 1053 264 1053 q 124 1091 161 1053 q 86 1185 86 1129 m 71 986 l 356 986 l 356 -56 l 71 -56 l 71 986 z "},"ı":{"ha":561,"x_min":143,"x_max":418,"o":"m 143 910 l 418 910 l 418 0 l 143 0 l 143 910 z "},"Ĳ":{"ha":1204,"x_min":71,"x_max":1117,"o":"m 71 986 l 356 986 l 356 -56 l 71 -56 l 71 986 m 1117 986 l 1117 286 q 1019 22 1117 114 q 757 -69 922 -69 q 517 3 624 -69 l 543 246 q 733 188 678 188 q 805 215 778 188 q 832 288 832 243 l 832 757 l 585 757 l 585 986 l 1117 986 z "},"ĳ":{"ha":1142,"x_min":65,"x_max":1068,"o":"m 65 910 l 340 910 l 340 0 l 65 0 l 65 910 m 1068 910 l 1068 294 q 981 69 1068 154 q 753 -14 894 -15 q 508 51 614 -11 l 535 288 q 704 238 646 238 q 769 260 744 238 q 793 319 793 282 l 793 688 l 578 688 l 578 910 l 1068 910 z "},"Ķ":{"ha":850,"x_min":71,"x_max":840,"o":"m 840 -56 l 540 -56 l 356 396 l 356 -56 l 71 -56 l 71 986 l 356 986 l 356 631 l 540 986 l 826 986 l 589 542 l 840 -56 m 586 -129 l 422 -365 l 235 -365 l 351 -129 l 586 -129 z "},"ķ":{"ha":810,"x_min":65,"x_max":794,"o":"m 794 0 l 500 0 l 340 279 l 340 0 l 65 0 l 65 910 l 340 910 l 340 519 l 515 910 l 789 910 l 549 411 l 794 0 m 561 -71 l 397 -307 l 210 -307 l 326 -71 l 561 -71 z "},"ĸ":{"ha":811,"x_min":65,"x_max":794,"o":"m 794 0 l 500 0 l 340 279 l 340 0 l 65 0 l 65 910 l 340 910 l 340 519 l 515 910 l 789 910 l 549 411 l 794 0 z "},"Ĺ":{"ha":714,"x_min":107,"x_max":688,"o":"m 490 1282 l 297 1067 l 107 1067 l 213 1325 l 490 1282 m 400 186 l 688 186 l 688 -56 l 115 -56 l 115 986 l 400 986 l 400 186 z "},"ĺ":{"ha":694,"x_min":115,"x_max":660,"o":"m 500 1206 l 307 990 l 117 990 l 222 1249 l 500 1206 m 390 238 l 660 238 l 660 0 l 115 0 l 115 910 l 390 910 l 390 238 z "},"Ļ":{"ha":669,"x_min":71,"x_max":643,"o":"m 356 186 l 643 186 l 643 -56 l 71 -56 l 71 986 l 356 986 l 356 186 m 529 -115 l 365 -351 l 178 -351 l 294 -115 l 529 -115 z "},"ļ":{"ha":644,"x_min":65,"x_max":610,"o":"m 340 238 l 610 238 l 610 0 l 65 0 l 65 910 l 340 910 l 340 238 m 497 -71 l 333 -307 l 146 -307 l 263 -71 l 497 -71 z "},"Ľ":{"ha":694,"x_min":71,"x_max":715,"o":"m 563 599 l 436 672 q 525 992 543 800 l 706 992 q 676 774 715 881 q 563 599 636 668 m 356 186 l 643 186 l 643 -56 l 71 -56 l 71 986 l 356 986 l 356 186 z "},"ľ":{"ha":706,"x_min":65,"x_max":704,"o":"m 551 593 l 425 667 q 514 986 532 794 l 694 986 q 665 769 704 875 q 551 593 625 663 m 340 238 l 610 238 l 610 0 l 65 0 l 65 910 l 340 910 l 340 238 z "},"Ŀ":{"ha":678,"x_min":71,"x_max":671,"o":"m 356 186 l 643 186 l 643 -56 l 71 -56 l 71 986 l 356 986 l 356 186 m 538 381 q 442 421 481 381 q 403 519 403 461 q 442 615 403 575 q 538 656 482 656 q 631 615 590 656 q 671 519 671 574 q 631 422 671 463 q 538 381 590 381 z "},"ŀ":{"ha":661,"x_min":65,"x_max":703,"o":"m 340 238 l 610 238 l 610 0 l 65 0 l 65 910 l 340 910 l 340 238 m 569 353 q 474 393 513 353 q 435 492 435 433 q 474 588 435 547 q 569 628 514 628 q 663 587 622 628 q 703 492 703 546 q 663 394 703 435 q 569 353 622 353 z "},"Ł":{"ha":754,"x_min":36,"x_max":726,"o":"m 36 325 l 36 440 l 154 493 l 154 986 l 439 986 l 439 618 l 542 664 l 542 547 l 439 501 l 439 186 l 726 186 l 726 -56 l 154 -56 l 154 376 l 36 325 z "},"ł":{"ha":704,"x_min":17,"x_max":679,"o":"m 17 350 l 17 424 l 135 453 l 135 910 l 410 910 l 410 521 l 583 564 l 583 489 l 410 446 l 410 238 l 679 238 l 679 0 l 135 0 l 135 379 l 17 350 z "},"Ń":{"ha":914,"x_min":71,"x_max":860,"o":"m 711 1282 l 518 1067 l 328 1067 l 433 1325 l 711 1282 m 579 986 l 860 986 l 860 -56 l 701 -56 l 350 442 l 350 -56 l 71 -56 l 71 986 l 249 986 l 579 494 l 579 986 z "},"ń":{"ha":826,"x_min":65,"x_max":764,"o":"m 696 1194 l 501 982 l 308 982 l 415 1236 l 696 1194 m 488 910 l 764 910 l 764 0 l 610 0 l 340 388 l 340 0 l 65 0 l 65 910 l 239 910 l 488 522 l 488 910 z "},"Ņ":{"ha":914,"x_min":71,"x_max":860,"o":"m 579 986 l 860 986 l 860 -56 l 701 -56 l 350 442 l 350 -56 l 71 -56 l 71 986 l 249 986 l 579 494 l 579 986 m 683 -122 l 519 -358 l 332 -358 l 449 -122 l 683 -122 z "},"ņ":{"ha":826,"x_min":65,"x_max":764,"o":"m 488 910 l 764 910 l 764 0 l 610 0 l 340 388 l 340 0 l 65 0 l 65 910 l 239 910 l 488 522 l 488 910 m 603 -71 l 439 -307 l 251 -307 l 368 -71 l 603 -71 z "},"Ň":{"ha":914,"x_min":71,"x_max":860,"o":"m 246 1257 l 422 1299 l 471 1210 l 522 1299 l 686 1257 l 572 1072 l 354 1072 l 246 1257 m 579 986 l 860 986 l 860 -56 l 701 -56 l 350 442 l 350 -56 l 71 -56 l 71 986 l 249 986 l 579 494 l 579 986 z "},"ň":{"ha":826,"x_min":65,"x_max":764,"o":"m 179 1167 l 356 1208 l 404 1119 l 456 1208 l 619 1167 l 506 982 l 288 982 l 179 1167 m 488 910 l 764 910 l 764 0 l 610 0 l 340 388 l 340 0 l 65 0 l 65 910 l 239 910 l 488 522 l 488 910 z "},"ŉ":{"ha":1004,"x_min":-46,"x_max":942,"o":"m 249 1000 l 126 668 l -46 668 l 31 1000 l 249 1000 m 665 910 l 942 910 l 942 0 l 788 0 l 518 388 l 518 0 l 243 0 l 243 910 l 417 910 l 665 522 l 665 910 z "},"Ŋ":{"ha":915,"x_min":71,"x_max":860,"o":"m 381 -108 q 479 -128 439 -128 q 551 -101 521 -128 q 581 -28 581 -74 l 581 118 l 350 442 l 350 -56 l 71 -56 l 71 986 l 249 986 l 579 494 l 579 986 l 860 986 l 860 -56 q 764 -284 860 -193 q 503 -375 668 -375 q 350 -351 418 -375 l 381 -108 z "},"ŋ":{"ha":825,"x_min":65,"x_max":764,"o":"m 488 910 l 764 910 l 764 0 q 670 -237 763 -147 q 428 -326 578 -326 q 242 -303 318 -326 l 269 -87 q 383 -106 331 -106 q 460 -75 431 -106 q 489 4 489 -44 l 489 174 l 340 388 l 340 0 l 65 0 l 65 910 l 239 910 l 488 522 l 488 910 z "},"Ō":{"ha":994,"x_min":63,"x_max":932,"o":"m 325 1264 l 682 1264 l 682 1056 l 325 1056 l 325 1264 m 499 -62 q 183 84 303 -62 q 63 469 63 231 q 183 854 63 708 q 499 1000 303 1000 q 813 854 693 1000 q 932 469 932 708 q 813 84 932 231 q 499 -62 693 -62 m 499 188 q 606 265 565 188 q 647 469 647 343 q 606 673 647 596 q 499 750 565 750 q 389 673 431 750 q 347 469 347 596 q 389 265 347 343 q 499 188 431 188 z "},"ō":{"ha":908,"x_min":57,"x_max":851,"o":"m 256 1188 l 613 1188 l 613 979 l 256 979 l 256 1188 m 456 -14 q 167 115 276 -14 q 57 457 57 244 q 167 795 57 667 q 456 924 276 924 q 742 795 633 924 q 851 457 851 667 q 742 115 851 244 q 456 -14 633 -14 m 456 236 q 543 297 510 236 q 576 457 576 357 q 543 614 576 554 q 456 674 510 674 q 366 614 400 674 q 332 457 332 554 q 366 297 332 357 q 456 236 400 236 z "},"Ő":{"ha":994,"x_min":63,"x_max":932,"o":"m 407 1058 l 218 1058 l 303 1326 l 510 1285 l 407 1058 m 704 1058 l 517 1058 l 601 1326 l 808 1285 l 704 1058 m 499 -62 q 183 84 303 -62 q 63 469 63 231 q 183 854 63 708 q 499 1000 303 1000 q 813 854 693 1000 q 932 469 932 708 q 813 84 932 231 q 499 -62 693 -62 m 499 188 q 606 265 565 188 q 647 469 647 343 q 606 673 647 596 q 499 750 565 750 q 389 673 431 750 q 347 469 347 596 q 389 265 347 343 q 499 188 431 188 z "},"ő":{"ha":908,"x_min":57,"x_max":851,"o":"m 418 974 l 229 974 l 314 1242 l 521 1200 l 418 974 m 715 974 l 528 974 l 613 1242 l 819 1200 l 715 974 m 456 -14 q 167 115 276 -14 q 57 457 57 244 q 167 795 57 667 q 456 924 276 924 q 742 795 633 924 q 851 457 851 667 q 742 115 851 244 q 456 -14 633 -14 m 456 236 q 543 297 510 236 q 576 457 576 357 q 543 614 576 554 q 456 674 510 674 q 366 614 400 674 q 332 457 332 554 q 366 297 332 357 q 456 236 400 236 z "},"Œ":{"ha":1297,"x_min":63,"x_max":1240,"o":"m 183 84 q 123 157 183 84 q 63 469 63 231 q 183 854 63 708 q 499 1000 303 1000 q 651 968 581 1000 l 651 986 l 1219 986 l 1219 742 l 935 742 l 935 632 l 1217 632 l 1217 413 l 935 413 l 935 186 l 1240 186 l 1240 -56 l 651 -56 l 651 -32 q 499 -62 579 -62 q 183 84 303 -62 m 389 673 q 368 634 389 673 q 347 469 347 596 q 389 265 347 343 q 499 188 431 188 q 606 265 565 188 q 647 469 647 343 q 606 673 647 596 q 499 750 565 750 q 389 673 431 750 z "},"œ":{"ha":1193,"x_min":57,"x_max":1125,"o":"m 57 457 q 167 795 57 667 q 456 924 276 924 q 588 910 533 924 l 1104 910 l 1104 672 l 847 672 l 847 533 l 1115 533 l 1115 314 l 847 314 l 847 238 l 1125 238 l 1125 0 l 588 0 q 456 -14 532 -14 q 167 115 276 -14 q 57 457 57 244 m 332 457 q 366 297 332 357 q 456 236 400 236 q 531 278 500 236 q 572 393 561 319 l 572 519 q 531 632 561 590 q 456 674 500 674 q 366 614 400 674 q 332 457 332 554 z "},"Ŕ":{"ha":864,"x_min":71,"x_max":821,"o":"m 622 1282 l 429 1067 l 239 1067 l 344 1325 l 622 1282 m 821 -56 l 513 -56 l 353 367 l 353 -56 l 71 -56 l 71 986 l 517 986 q 729 903 649 986 q 810 686 810 819 q 757 494 810 575 q 613 385 704 414 l 821 -56 m 429 768 l 353 768 l 353 588 l 429 588 q 498 614 471 588 q 525 681 525 640 q 498 743 525 718 q 429 768 471 768 z "},"ŕ":{"ha":801,"x_min":65,"x_max":767,"o":"m 619 1194 l 425 982 l 232 982 l 339 1236 l 619 1194 m 767 0 l 472 0 l 340 232 l 340 0 l 65 0 l 65 910 l 453 910 q 658 818 581 910 q 736 578 736 726 q 692 390 736 469 q 568 276 647 311 l 767 0 m 365 697 l 340 697 l 340 465 l 365 465 q 435 497 408 465 q 461 581 461 529 q 435 665 461 632 q 365 697 408 697 z "},"Ŗ":{"ha":864,"x_min":71,"x_max":821,"o":"m 821 -56 l 513 -56 l 353 367 l 353 -56 l 71 -56 l 71 986 l 517 986 q 729 903 649 986 q 810 686 810 819 q 757 494 810 575 q 613 385 704 414 l 821 -56 m 429 768 l 353 768 l 353 588 l 429 588 q 498 614 471 588 q 525 681 525 640 q 498 743 525 718 q 429 768 471 768 m 569 -126 l 406 -362 l 218 -362 l 335 -126 l 569 -126 z "},"ŗ":{"ha":801,"x_min":65,"x_max":767,"o":"m 767 0 l 472 0 l 340 232 l 340 0 l 65 0 l 65 910 l 453 910 q 658 818 581 910 q 736 578 736 726 q 692 390 736 469 q 568 276 647 311 l 767 0 m 365 697 l 340 697 l 340 465 l 365 465 q 435 497 408 465 q 461 581 461 529 q 435 665 461 632 q 365 697 408 697 m 531 -71 l 367 -307 l 179 -307 l 296 -71 l 531 -71 z "},"Ř":{"ha":864,"x_min":71,"x_max":821,"o":"m 181 1257 l 357 1299 l 406 1210 l 457 1299 l 621 1257 l 507 1072 l 289 1072 l 181 1257 m 821 -56 l 513 -56 l 353 367 l 353 -56 l 71 -56 l 71 986 l 517 986 q 729 903 649 986 q 810 686 810 819 q 757 494 810 575 q 613 385 704 414 l 821 -56 m 429 768 l 353 768 l 353 588 l 429 588 q 498 614 471 588 q 525 681 525 640 q 498 743 525 718 q 429 768 471 768 z "},"ř":{"ha":801,"x_min":65,"x_max":767,"o":"m 104 1167 l 281 1208 l 329 1119 l 381 1208 l 544 1167 l 431 982 l 213 982 l 104 1167 m 767 0 l 472 0 l 340 232 l 340 0 l 65 0 l 65 910 l 453 910 q 658 818 581 910 q 736 578 736 726 q 692 390 736 469 q 568 276 647 311 l 767 0 m 365 697 l 340 697 l 340 465 l 365 465 q 435 497 408 465 q 461 581 461 529 q 435 665 461 632 q 365 697 408 697 z "},"Ś":{"ha":797,"x_min":60,"x_max":738,"o":"m 625 1282 l 432 1067 l 242 1067 l 347 1325 l 625 1282 m 650 682 q 417 758 526 758 q 353 708 353 758 q 392 644 353 676 q 488 577 432 611 q 601 500 544 543 q 698 388 658 457 q 738 232 738 318 q 642 13 738 94 q 372 -68 546 -68 q 60 53 189 -68 l 115 272 q 364 174 263 174 q 453 238 453 174 q 425 297 453 267 q 356 351 397 326 q 265 412 314 376 q 175 486 217 447 q 106 586 133 525 q 78 718 78 647 q 165 926 78 851 q 404 1000 251 1000 q 579 974 493 1000 q 719 906 665 949 l 650 682 z "},"ś":{"ha":744,"x_min":61,"x_max":694,"o":"m 625 1194 l 431 982 l 238 982 l 344 1236 l 625 1194 m 613 617 q 385 693 471 693 q 349 681 363 693 q 336 653 336 669 q 373 597 336 624 q 463 544 410 571 q 568 484 515 518 q 658 392 621 450 q 693 258 694 333 q 608 57 692 128 q 368 -14 525 -14 q 64 86 200 -14 l 119 301 q 231 244 168 265 q 343 224 293 224 q 418 264 418 224 q 392 305 418 286 q 326 338 365 324 q 240 377 286 351 q 153 435 193 403 q 88 524 114 467 q 61 654 61 581 q 145 850 61 776 q 372 924 229 924 q 553 897 465 924 q 683 829 640 871 l 613 617 z "},"Ş":{"ha":797,"x_min":60,"x_max":738,"o":"m 60 53 l 115 272 q 364 174 263 174 q 453 238 453 174 q 425 297 453 267 q 356 351 397 326 q 265 412 314 376 q 175 486 217 447 q 106 586 133 525 q 78 718 78 647 q 165 926 78 851 q 404 1000 251 1000 q 579 974 493 1000 q 719 906 665 949 l 650 682 q 417 758 526 758 q 353 708 353 758 q 392 644 353 676 q 488 577 432 611 q 601 500 544 543 q 698 388 658 457 q 738 232 738 318 q 658 27 738 106 q 432 -65 579 -51 l 422 -104 q 513 -119 476 -96 q 550 -192 550 -142 q 501 -274 550 -243 q 374 -304 453 -304 q 215 -261 283 -304 l 246 -181 q 344 -204 283 -204 q 403 -178 401 -204 q 383 -154 403 -160 q 374 -153 378 -153 l 285 -153 l 306 -64 q 60 53 160 -42 z "},"ş":{"ha":744,"x_min":61,"x_max":694,"o":"m 61 654 q 145 850 61 776 q 372 924 229 924 q 553 897 465 924 q 683 829 640 871 l 613 617 q 385 693 471 693 q 349 681 363 693 q 336 653 336 669 q 373 597 336 624 q 463 544 410 571 q 568 484 515 518 q 658 392 621 450 q 693 258 694 333 q 621 67 692 138 q 414 -12 550 -3 l 406 -49 q 497 -63 460 -40 q 533 -136 533 -86 q 485 -218 533 -187 q 357 -249 436 -249 q 199 -206 267 -249 l 229 -125 q 328 -149 267 -149 q 386 -122 385 -149 q 367 -99 386 -104 q 357 -97 361 -97 l 268 -97 l 289 -8 q 64 86 167 13 l 119 301 q 231 244 168 265 q 343 224 293 224 q 418 264 418 224 q 392 305 418 286 q 326 338 365 324 q 240 377 286 351 q 153 435 193 403 q 88 524 114 467 q 61 654 61 581 z "},"Š":{"ha":797,"x_min":60,"x_max":738,"o":"m 179 1257 l 356 1299 l 404 1210 l 456 1299 l 619 1257 l 506 1072 l 288 1072 l 179 1257 m 650 682 q 417 758 526 758 q 353 708 353 758 q 392 644 353 676 q 488 577 432 611 q 601 500 544 543 q 698 388 658 457 q 738 232 738 318 q 642 13 738 94 q 372 -68 546 -68 q 60 53 189 -68 l 115 272 q 364 174 263 174 q 453 238 453 174 q 425 297 453 267 q 356 351 397 326 q 265 412 314 376 q 175 486 217 447 q 106 586 133 525 q 78 718 78 647 q 165 926 78 851 q 404 1000 251 1000 q 579 974 493 1000 q 719 906 665 949 l 650 682 z "},"š":{"ha":744,"x_min":61,"x_max":694,"o":"m 149 1172 l 325 1214 l 374 1125 l 425 1214 l 589 1172 l 475 988 l 257 988 l 149 1172 m 613 617 q 385 693 471 693 q 349 681 363 693 q 336 653 336 669 q 373 597 336 624 q 463 544 410 571 q 568 484 515 518 q 658 392 621 450 q 693 258 694 333 q 608 57 692 128 q 368 -14 525 -14 q 64 86 200 -14 l 119 301 q 231 244 168 265 q 343 224 293 224 q 418 264 418 224 q 392 305 418 286 q 326 338 365 324 q 240 377 286 351 q 153 435 193 403 q 88 524 114 467 q 61 654 61 581 q 145 850 61 776 q 372 924 229 924 q 553 897 465 924 q 683 829 640 871 l 613 617 z "},"Ţ":{"ha":829,"x_min":96,"x_max":733,"o":"m 96 743 l 96 986 l 733 986 l 733 743 l 557 743 l 557 -56 l 463 -56 l 454 -90 q 545 -105 508 -82 q 582 -178 582 -128 q 533 -260 582 -229 q 406 -290 485 -290 q 247 -247 315 -290 l 278 -167 q 376 -190 315 -190 q 435 -164 433 -190 q 415 -140 435 -146 q 406 -139 410 -139 l 317 -139 l 336 -56 l 275 -56 l 275 743 l 96 743 z "},"ţ":{"ha":810,"x_min":99,"x_max":711,"o":"m 99 672 l 99 910 l 711 910 l 711 672 l 543 672 l 543 0 l 463 0 l 450 -49 q 541 -63 504 -40 q 578 -136 578 -86 q 529 -218 578 -187 q 401 -249 481 -249 q 243 -206 311 -249 l 274 -125 q 372 -149 311 -149 q 431 -122 429 -149 q 411 -99 431 -104 q 401 -97 406 -97 l 313 -97 l 336 0 l 267 0 l 267 672 l 99 672 z "},"Ť":{"ha":700,"x_min":28,"x_max":665,"o":"m 125 1257 l 301 1299 l 350 1210 l 401 1299 l 565 1257 l 451 1072 l 233 1072 l 125 1257 m 665 986 l 665 743 l 489 743 l 489 -56 l 207 -56 l 207 743 l 28 743 l 28 986 l 665 986 z "},"ť":{"ha":681,"x_min":31,"x_max":643,"o":"m 117 1167 l 293 1208 l 342 1119 l 393 1208 l 557 1167 l 443 982 l 225 982 l 117 1167 m 643 910 l 643 672 l 475 672 l 475 0 l 199 0 l 199 672 l 31 672 l 31 910 l 643 910 z "},"Ŧ":{"ha":704,"x_min":29,"x_max":667,"o":"m 29 743 l 29 986 l 667 986 l 667 743 l 490 743 l 490 564 l 629 564 l 629 422 l 490 422 l 490 -56 l 208 -56 l 208 422 l 69 422 l 69 564 l 208 564 l 208 743 l 29 743 z "},"ŧ":{"ha":690,"x_min":35,"x_max":647,"o":"m 35 672 l 35 910 l 647 910 l 647 672 l 479 672 l 479 499 l 604 499 l 604 357 l 479 357 l 479 0 l 203 0 l 203 357 l 78 357 l 78 499 l 203 499 l 203 672 l 35 672 z "},"Ũ":{"ha":878,"x_min":63,"x_max":815,"o":"m 658 1274 q 639 1132 675 1183 q 524 1081 603 1081 q 478 1083 499 1081 q 426 1094 458 1086 q 383 1103 394 1101 q 335 1061 338 1111 l 199 1079 q 210 1226 181 1172 q 308 1279 240 1279 q 399 1262 349 1279 q 469 1244 449 1244 q 524 1285 515 1244 l 658 1274 m 815 986 l 815 297 q 712 31 815 132 q 439 -69 608 -69 q 166 31 269 -69 q 63 297 63 132 l 63 986 l 344 986 l 344 285 q 370 209 344 238 q 439 181 396 181 q 508 209 482 181 q 533 285 533 238 l 533 986 l 815 986 z "},"ũ":{"ha":808,"x_min":58,"x_max":750,"o":"m 639 1190 q 619 1049 656 1100 q 504 997 583 997 q 459 1000 479 997 q 407 1010 439 1003 q 364 1019 375 1018 q 315 978 318 1028 l 179 996 q 191 1142 161 1089 q 289 1196 221 1196 q 379 1178 329 1196 q 450 1161 429 1161 q 504 1201 496 1161 l 639 1190 m 750 910 l 750 339 q 655 83 750 181 q 404 -14 560 -14 q 153 83 249 -14 q 58 339 58 181 l 58 910 l 333 910 l 333 326 q 353 261 333 286 q 404 236 372 236 q 456 261 436 236 q 475 326 475 286 l 475 910 l 750 910 z "},"Ū":{"ha":878,"x_min":63,"x_max":815,"o":"m 258 1264 l 615 1264 l 615 1056 l 258 1056 l 258 1264 m 815 986 l 815 297 q 712 31 815 132 q 439 -69 608 -69 q 166 31 269 -69 q 63 297 63 132 l 63 986 l 344 986 l 344 285 q 370 209 344 238 q 439 181 396 181 q 508 209 482 181 q 533 285 533 238 l 533 986 l 815 986 z "},"ū":{"ha":808,"x_min":58,"x_max":750,"o":"m 200 1188 l 557 1188 l 557 979 l 200 979 l 200 1188 m 750 910 l 750 339 q 655 83 750 181 q 404 -14 560 -14 q 153 83 249 -14 q 58 339 58 181 l 58 910 l 333 910 l 333 326 q 353 261 333 286 q 404 236 372 236 q 456 261 436 236 q 475 326 475 286 l 475 910 l 750 910 z "},"Ů":{"ha":878,"x_min":63,"x_max":815,"o":"m 553 1079 q 533 1061 553 1079 q 444 1043 513 1043 q 335 1079 376 1043 q 294 1175 294 1115 q 335 1271 294 1235 q 444 1307 376 1307 q 553 1271 513 1307 q 594 1175 594 1235 q 553 1079 594 1115 m 444 1201 q 426 1201 444 1201 q 407 1175 407 1201 q 444 1149 407 1149 q 482 1175 482 1149 q 444 1201 482 1201 m 815 986 l 815 297 q 712 31 815 132 q 439 -69 608 -69 q 166 31 269 -69 q 63 297 63 132 l 63 986 l 344 986 l 344 285 q 370 209 344 238 q 439 181 396 181 q 508 209 482 181 q 533 285 533 238 l 533 986 l 815 986 z "},"ů":{"ha":808,"x_min":58,"x_max":750,"o":"m 510 996 q 490 978 510 996 q 401 960 469 960 q 292 996 333 960 q 251 1092 251 1032 q 292 1188 251 1151 q 401 1224 333 1224 q 510 1188 469 1224 q 551 1092 551 1151 q 510 996 551 1032 m 401 1118 q 383 1118 401 1118 q 364 1092 364 1118 q 401 1065 364 1065 q 439 1092 439 1065 q 401 1118 439 1118 m 750 910 l 750 339 q 655 83 750 181 q 404 -14 560 -14 q 153 83 249 -14 q 58 339 58 181 l 58 910 l 333 910 l 333 326 q 353 261 333 286 q 404 236 372 236 q 456 261 436 236 q 475 326 475 286 l 475 910 l 750 910 z "},"Ű":{"ha":878,"x_min":63,"x_max":815,"o":"m 354 1058 l 165 1058 l 250 1326 l 457 1285 l 354 1058 m 651 1058 l 464 1058 l 549 1326 l 756 1285 l 651 1058 m 815 986 l 815 297 q 712 31 815 132 q 439 -69 608 -69 q 166 31 269 -69 q 63 297 63 132 l 63 986 l 344 986 l 344 285 q 370 209 344 238 q 439 181 396 181 q 508 209 482 181 q 533 285 533 238 l 533 986 l 815 986 z "},"ű":{"ha":808,"x_min":58,"x_max":750,"o":"m 344 974 l 156 974 l 240 1242 l 447 1200 l 344 974 m 642 974 l 454 974 l 539 1242 l 746 1200 l 642 974 m 750 910 l 750 339 q 655 83 750 181 q 404 -14 560 -14 q 153 83 249 -14 q 58 339 58 181 l 58 910 l 333 910 l 333 326 q 353 261 333 286 q 404 236 372 236 q 456 261 436 236 q 475 326 475 286 l 475 910 l 750 910 z "},"Ų":{"ha":876,"x_min":63,"x_max":815,"o":"m 63 297 l 63 986 l 344 986 l 344 285 q 370 209 344 238 q 439 181 396 181 q 508 209 482 181 q 533 285 533 238 l 533 986 l 815 986 l 815 297 q 726 47 815 146 q 489 -67 638 -51 q 461 -119 461 -92 q 504 -157 461 -160 l 504 -294 q 442 -303 475 -303 q 333 -267 374 -303 q 293 -179 293 -232 q 338 -58 293 -115 q 137 65 211 -31 q 63 297 63 160 z "},"ų":{"ha":808,"x_min":58,"x_max":750,"o":"m 58 339 l 58 910 l 333 910 l 333 326 q 353 261 333 286 q 404 236 372 236 q 456 261 436 236 q 475 326 475 286 l 475 910 l 750 910 l 750 339 q 674 105 750 199 q 469 -8 599 11 q 438 -65 438 -37 q 481 -103 438 -106 l 481 -240 q 418 -249 451 -249 q 310 -213 350 -249 q 269 -125 269 -178 q 314 -4 269 -61 q 127 114 196 22 q 58 339 58 206 z "},"Ŵ":{"ha":1175,"x_min":26,"x_max":1151,"o":"m 364 1075 l 474 1274 l 699 1274 l 813 1075 l 619 1075 l 583 1138 l 551 1075 l 364 1075 m 26 986 l 282 986 l 379 335 l 543 943 l 633 943 l 796 349 l 892 986 l 1151 986 l 940 -56 l 711 -56 l 590 400 l 483 -56 l 225 -56 l 26 986 z "},"ŵ":{"ha":1142,"x_min":25,"x_max":1122,"o":"m 349 1000 l 458 1199 l 683 1199 l 797 1000 l 604 1000 l 568 1063 l 536 1000 l 349 1000 m 25 910 l 278 910 l 358 358 l 522 850 l 618 850 l 782 365 l 861 910 l 1122 910 l 925 0 l 696 0 l 575 385 l 468 0 l 210 0 l 25 910 z "},"Ŷ":{"ha":843,"x_min":26,"x_max":836,"o":"m 204 1075 l 314 1274 l 539 1274 l 653 1075 l 460 1075 l 424 1138 l 392 1075 l 204 1075 m 836 986 l 567 483 l 567 -56 l 285 -56 l 285 478 l 26 986 l 300 986 l 425 701 l 549 986 l 836 986 z "},"ŷ":{"ha":821,"x_min":24,"x_max":806,"o":"m 178 1000 l 288 1199 l 513 1199 l 626 1000 l 433 1000 l 397 1063 l 365 1000 l 178 1000 m 806 910 l 547 294 l 547 0 l 271 0 l 271 289 l 24 910 l 297 910 l 408 517 l 518 910 l 806 910 z "},"Ÿ":{"ha":843,"x_min":26,"x_max":836,"o":"m 256 1043 q 165 1081 203 1043 q 128 1175 128 1119 q 165 1266 128 1228 q 256 1304 203 1304 q 344 1265 306 1304 q 382 1175 382 1226 q 344 1082 382 1121 q 256 1043 306 1043 m 581 1043 q 488 1081 525 1043 q 451 1175 451 1119 q 489 1266 451 1228 q 581 1304 526 1304 q 669 1265 631 1304 q 707 1175 707 1226 q 669 1082 707 1121 q 581 1043 631 1043 m 836 986 l 567 483 l 567 -56 l 285 -56 l 285 478 l 26 986 l 300 986 l 425 701 l 549 986 l 836 986 z "},"Ź":{"ha":771,"x_min":47,"x_max":713,"o":"m 650 1282 l 457 1067 l 267 1067 l 372 1325 l 650 1282 m 47 -56 l 47 71 l 378 731 l 75 731 l 75 986 l 713 986 l 713 842 l 396 199 l 713 199 l 713 -56 l 47 -56 z "},"ź":{"ha":721,"x_min":35,"x_max":672,"o":"m 643 1194 l 449 982 l 256 982 l 363 1236 l 643 1194 m 35 0 l 35 113 l 325 660 l 47 660 l 47 910 l 658 910 l 658 751 l 389 250 l 672 250 l 672 0 l 35 0 z "},"Ż":{"ha":771,"x_min":47,"x_max":713,"o":"m 282 1185 q 319 1276 282 1238 q 410 1314 357 1314 q 498 1275 460 1314 q 536 1185 536 1236 q 498 1092 536 1131 q 410 1053 460 1053 q 319 1091 357 1053 q 282 1185 282 1129 m 47 -56 l 47 71 l 378 731 l 75 731 l 75 986 l 713 986 l 713 842 l 396 199 l 713 199 l 713 -56 l 47 -56 z "},"ż":{"ha":721,"x_min":35,"x_max":672,"o":"m 226 1129 q 264 1220 226 1182 q 354 1258 301 1258 q 442 1219 404 1258 q 481 1129 481 1181 q 442 1036 481 1075 q 354 997 404 997 q 264 1035 301 997 q 226 1129 226 1074 m 35 0 l 35 113 l 325 660 l 47 660 l 47 910 l 658 910 l 658 751 l 389 250 l 672 250 l 672 0 l 35 0 z "},"Ž":{"ha":771,"x_min":47,"x_max":713,"o":"m 182 1257 l 358 1299 l 407 1210 l 458 1299 l 622 1257 l 508 1072 l 290 1072 l 182 1257 m 47 -56 l 47 71 l 378 731 l 75 731 l 75 986 l 713 986 l 713 842 l 396 199 l 713 199 l 713 -56 l 47 -56 z "},"ž":{"ha":721,"x_min":35,"x_max":672,"o":"m 142 1167 l 318 1208 l 367 1119 l 418 1208 l 582 1167 l 468 982 l 250 982 l 142 1167 m 35 0 l 35 113 l 325 660 l 47 660 l 47 910 l 658 910 l 658 751 l 389 250 l 672 250 l 672 0 l 35 0 z "},"Ǫ":{"ha":1131,"x_min":131,"x_max":1000,"o":"m 131 469 q 251 854 131 708 q 567 1000 371 1000 q 881 854 761 1000 q 1000 469 1000 708 q 891 97 1000 240 q 601 -61 782 -47 q 583 -104 583 -83 q 626 -142 583 -144 l 626 -279 q 564 -287 597 -287 q 456 -252 496 -287 q 415 -164 415 -217 q 456 -49 415 -101 q 218 128 306 -10 q 131 469 131 267 m 567 188 q 674 265 633 188 q 715 469 715 343 q 674 673 715 596 q 567 750 633 750 q 457 673 499 750 q 415 469 415 596 q 457 265 415 343 q 567 188 499 188 z "},"ǫ":{"ha":1044,"x_min":125,"x_max":919,"o":"m 125 457 q 235 795 125 667 q 524 924 344 924 q 810 795 701 924 q 919 457 919 667 q 824 131 919 258 q 567 -11 728 4 q 551 -51 551 -31 q 594 -89 551 -92 l 594 -226 q 532 -235 565 -235 q 424 -199 464 -235 q 383 -111 383 -164 q 421 -1 383 -51 q 205 156 285 35 q 125 457 125 278 m 524 236 q 611 297 578 236 q 644 457 644 357 q 611 614 644 554 q 524 674 578 674 q 434 614 468 674 q 400 457 400 554 q 434 297 400 357 q 524 236 468 236 z "},"Ǽ":{"ha":1257,"x_min":-4,"x_max":1190,"o":"m 1015 1282 l 822 1067 l 632 1067 l 738 1325 l 1015 1282 m 885 186 l 1190 186 l 1190 -56 l 601 -56 l 601 192 l 374 192 l 267 -56 l -4 -56 l 478 986 l 1169 986 l 1169 742 l 885 742 l 885 644 l 1167 644 l 1167 425 l 885 425 l 885 186 m 471 414 l 601 414 l 601 715 l 471 414 z "},"ǽ":{"ha":1149,"x_min":4,"x_max":1088,"o":"m 992 1194 l 797 982 l 604 982 l 711 1236 l 992 1194 m 4 0 l 400 910 l 1067 910 l 1067 672 l 810 672 l 810 531 l 1078 531 l 1078 311 l 810 311 l 810 238 l 1088 238 l 1088 0 l 538 0 l 538 101 l 319 101 l 279 0 l 4 0 m 403 311 l 538 311 l 538 651 l 535 646 l 403 311 z "},"Ǿ":{"ha":994,"x_min":63,"x_max":932,"o":"m 736 1282 l 543 1067 l 353 1067 l 458 1325 l 736 1282 m 63 469 q 183 854 63 708 q 499 1000 303 1000 q 697 951 608 1000 l 749 1050 l 838 1050 l 763 906 q 932 469 932 760 q 813 84 932 231 q 499 -62 693 -62 q 283 -4 378 -62 l 221 -122 l 133 -122 l 221 43 q 63 469 63 190 m 347 469 q 367 322 347 388 l 574 717 q 499 750 542 750 q 389 673 431 750 q 347 469 347 596 m 408 235 q 499 188 447 188 q 606 265 565 188 q 647 469 647 343 q 621 639 647 567 l 408 235 z "},"ǿ":{"ha":908,"x_min":57,"x_max":851,"o":"m 700 1194 l 506 982 l 313 982 l 419 1236 l 700 1194 m 57 457 q 167 795 57 667 q 456 924 276 924 q 656 871 565 924 l 701 947 l 790 947 l 715 824 q 851 457 851 694 q 742 115 851 244 q 456 -14 633 -14 q 246 46 338 -14 l 196 -37 l 108 -37 l 188 93 q 57 457 57 224 m 332 457 q 344 354 332 397 l 519 646 q 456 674 492 674 q 366 614 400 674 q 332 457 332 554 m 383 272 q 456 236 413 236 q 543 297 510 236 q 576 457 576 357 q 561 568 576 519 l 383 272 z "},"Ș":{"ha":797,"x_min":60,"x_max":738,"o":"m 650 682 q 417 758 526 758 q 353 708 353 758 q 392 644 353 676 q 488 577 432 611 q 601 500 544 543 q 698 388 658 457 q 738 232 738 318 q 642 13 738 94 q 372 -68 546 -68 q 60 53 189 -68 l 115 272 q 364 174 263 174 q 453 238 453 174 q 425 297 453 267 q 356 351 397 326 q 265 412 314 376 q 175 486 217 447 q 106 586 133 525 q 78 718 78 647 q 165 926 78 851 q 404 1000 251 1000 q 579 974 493 1000 q 719 906 665 949 l 650 682 m 601 -140 l 438 -376 l 250 -376 l 367 -140 l 601 -140 z "},"ș":{"ha":744,"x_min":61,"x_max":694,"o":"m 613 617 q 385 693 471 693 q 349 681 363 693 q 336 653 336 669 q 373 597 336 624 q 463 544 410 571 q 568 484 515 518 q 658 392 621 450 q 693 258 694 333 q 608 57 692 128 q 368 -14 525 -14 q 64 86 200 -14 l 119 301 q 231 244 168 265 q 343 224 293 224 q 418 264 418 224 q 392 305 418 286 q 326 338 365 324 q 240 377 286 351 q 153 435 193 403 q 88 524 114 467 q 61 654 61 581 q 145 850 61 776 q 372 924 229 924 q 553 897 465 924 q 683 829 640 871 l 613 617 m 535 -85 l 371 -321 l 183 -321 l 300 -85 l 535 -85 z "},"Ț":{"ha":788,"x_min":28,"x_max":665,"o":"m 665 986 l 665 743 l 489 743 l 489 -56 l 207 -56 l 207 743 l 28 743 l 28 986 l 665 986 m 485 -128 l 321 -364 l 133 -364 l 250 -128 l 485 -128 z "},"ț":{"ha":694,"x_min":31,"x_max":643,"o":"m 643 910 l 643 672 l 475 672 l 475 0 l 199 0 l 199 672 l 31 672 l 31 910 l 643 910 m 463 -71 l 299 -307 l 111 -307 l 228 -71 l 463 -71 z "},"ȷ":{"ha":0,"x_min":0,"x_max":0,"o":""},"ˆ":{"ha":968,"x_min":117,"x_max":565,"o":"m 117 1000 l 226 1199 l 451 1199 l 565 1000 l 372 1000 l 336 1063 l 304 1000 l 117 1000 z "},"ˇ":{"ha":944,"x_min":51,"x_max":492,"o":"m 51 1167 l 228 1208 l 276 1119 l 328 1208 l 492 1167 l 378 982 l 160 982 l 51 1167 z "},"˘":{"ha":951,"x_min":228,"x_max":671,"o":"m 671 1061 q 575 1008 636 1028 q 449 988 514 988 q 322 1008 382 988 q 228 1061 261 1028 l 282 1217 q 449 1164 339 1164 q 617 1217 560 1164 l 671 1061 z "},"˙":{"ha":929,"x_min":110,"x_max":364,"o":"m 110 1129 q 147 1220 110 1182 q 238 1258 185 1258 q 326 1219 288 1258 q 364 1129 364 1181 q 326 1036 364 1075 q 238 997 288 997 q 147 1035 185 997 q 110 1129 110 1074 z "},"˚":{"ha":883,"x_min":92,"x_max":392,"o":"m 351 996 q 330 978 351 996 q 242 960 310 960 q 133 996 174 960 q 92 1092 92 1032 q 133 1188 92 1151 q 242 1224 174 1224 q 351 1188 310 1224 q 392 1092 392 1151 q 351 996 392 1032 m 242 1118 q 223 1118 242 1118 q 204 1092 204 1118 q 242 1065 204 1065 q 279 1092 279 1065 q 242 1118 279 1118 z "},"˛":{"ha":917,"x_min":111,"x_max":322,"o":"m 322 -240 q 260 -249 293 -249 q 151 -213 192 -249 q 111 -125 111 -178 q 150 -12 111 -64 q 269 100 189 39 l 322 0 q 279 -65 279 -32 q 322 -103 279 -106 l 322 -240 z "},"˜":{"ha":965,"x_min":128,"x_max":622,"o":"m 606 1190 q 586 1049 622 1100 q 471 997 550 997 q 426 1000 446 997 q 374 1010 406 1003 q 331 1019 342 1018 q 282 978 285 1028 l 146 996 q 158 1142 128 1089 q 256 1196 188 1196 q 346 1178 296 1196 q 417 1161 396 1161 q 471 1201 463 1161 l 606 1190 z "},"˝":{"ha":978,"x_min":144,"x_max":735,"o":"m 333 974 l 144 974 l 229 1242 l 436 1200 l 333 974 m 631 974 l 443 974 l 528 1242 l 735 1200 l 631 974 z "},"̀":{"ha":0,"x_min":-714,"x_max":-321,"o":"m -714 1194 l -428 1236 l -321 982 l -547 982 l -714 1194 z "},"́":{"ha":0,"x_min":-593,"x_max":-206,"o":"m -206 1194 l -400 982 l -593 982 l -486 1236 l -206 1194 z "},"̂":{"ha":0,"x_min":-640,"x_max":-192,"o":"m -640 1000 l -531 1199 l -306 1199 l -192 1000 l -385 1000 l -421 1063 l -453 1000 l -640 1000 z "},"̃":{"ha":0,"x_min":-697,"x_max":-203,"o":"m -219 1190 q -239 1049 -203 1100 q -354 997 -275 997 q -399 1000 -379 997 q -451 1010 -419 1003 q -494 1019 -483 1018 q -543 978 -540 1028 l -679 996 q -667 1142 -697 1089 q -569 1196 -637 1196 q -479 1178 -529 1196 q -408 1161 -429 1161 q -354 1201 -362 1161 l -219 1190 z "},"̄":{"ha":0,"x_min":-532,"x_max":-175,"o":"m -532 1188 l -175 1188 l -175 979 l -532 979 l -532 1188 z "},"̆":{"ha":0,"x_min":-718,"x_max":-275,"o":"m -275 1061 q -371 1008 -310 1028 q -497 988 -432 988 q -624 1008 -564 988 q -718 1061 -685 1028 l -664 1217 q -497 1164 -607 1164 q -329 1217 -386 1164 l -275 1061 z "},"̇":{"ha":0,"x_min":-431,"x_max":-176,"o":"m -431 1129 q -393 1220 -431 1182 q -303 1258 -356 1258 q -215 1219 -253 1258 q -176 1129 -176 1181 q -215 1036 -176 1075 q -303 997 -253 997 q -393 1035 -356 997 q -431 1129 -431 1074 z "},"̈":{"ha":0,"x_min":-796,"x_max":-217,"o":"m -668 979 q -758 1017 -721 979 q -796 1111 -796 1056 q -758 1202 -796 1164 q -668 1240 -721 1240 q -580 1201 -618 1240 q -542 1111 -542 1163 q -580 1018 -542 1057 q -668 979 -618 979 m -343 979 q -435 1017 -399 979 q -472 1111 -472 1056 q -435 1202 -472 1164 q -343 1240 -397 1240 q -255 1201 -293 1240 q -217 1111 -217 1163 q -255 1018 -217 1057 q -343 979 -293 979 z "},"̊":{"ha":0,"x_min":-487,"x_max":-187,"o":"m -228 996 q -249 978 -228 996 q -337 960 -269 960 q -447 996 -406 960 q -487 1092 -487 1032 q -447 1188 -487 1151 q -337 1224 -406 1224 q -228 1188 -269 1224 q -187 1092 -187 1151 q -228 996 -187 1032 m -337 1118 q -356 1118 -337 1118 q -375 1092 -375 1118 q -337 1065 -375 1065 q -300 1092 -300 1065 q -337 1118 -300 1118 z "},"̋":{"ha":0,"x_min":-757,"x_max":-167,"o":"m -568 974 l -757 974 l -672 1242 l -465 1200 l -568 974 m -271 974 l -458 974 l -374 1242 l -167 1200 l -271 974 z "},"̌":{"ha":0,"x_min":-579,"x_max":-139,"o":"m -579 1167 l -403 1208 l -354 1119 l -303 1208 l -139 1167 l -253 982 l -471 982 l -579 1167 z "},"̦":{"ha":0,"x_min":-514,"x_max":-162,"o":"m -162 -71 l -326 -307 l -514 -307 l -397 -71 l -162 -71 z "},"̧":{"ha":0,"x_min":-526,"x_max":-192,"o":"m -526 -206 l -496 -125 q -397 -149 -458 -149 q -339 -122 -340 -149 q -358 -99 -339 -104 q -368 -97 -364 -97 l -457 -97 l -432 8 l -306 8 l -319 -49 q -228 -63 -265 -40 q -192 -136 -192 -86 q -240 -218 -192 -187 q -368 -249 -289 -249 q -526 -206 -458 -249 z "},"̨":{"ha":0,"x_min":-469,"x_max":-258,"o":"m -258 -240 q -321 -249 -287 -249 q -429 -213 -389 -249 q -469 -125 -469 -178 q -431 -12 -469 -64 q -311 100 -392 39 l -258 0 q -301 -65 -301 -32 q -258 -103 -301 -106 l -258 -240 z "},"̵":{"ha":0,"x_min":-961,"x_max":-103,"o":"m -961 415 l -103 415 l -103 274 l -961 274 l -961 415 z "},"̶":{"ha":0,"x_min":-1006,"x_max":-119,"o":"m -1006 401 l -119 401 l -119 288 l -1006 288 l -1006 401 z "},"̷":{"ha":0,"x_min":-686,"x_max":-119,"o":"m -119 511 l -686 372 l -686 446 l -119 586 l -119 511 z "},"̸":{"ha":0,"x_min":-826,"x_max":-144,"o":"m -144 985 l -739 0 l -826 0 l -233 985 l -144 985 z "},"Ẁ":{"ha":1175,"x_min":26,"x_max":1151,"o":"m 315 1278 l 601 1319 l 708 1065 l 482 1065 l 315 1278 m 26 986 l 282 986 l 379 335 l 543 943 l 633 943 l 796 349 l 892 986 l 1151 986 l 940 -56 l 711 -56 l 590 400 l 483 -56 l 225 -56 l 26 986 z "},"ẁ":{"ha":1142,"x_min":25,"x_max":1122,"o":"m 288 1194 l 574 1236 l 681 982 l 454 982 l 288 1194 m 25 910 l 278 910 l 358 358 l 522 850 l 618 850 l 782 365 l 861 910 l 1122 910 l 925 0 l 696 0 l 575 385 l 468 0 l 210 0 l 25 910 z "},"Ẃ":{"ha":1175,"x_min":26,"x_max":1151,"o":"m 824 1282 l 631 1067 l 440 1067 l 546 1325 l 824 1282 m 26 986 l 282 986 l 379 335 l 543 943 l 633 943 l 796 349 l 892 986 l 1151 986 l 940 -56 l 711 -56 l 590 400 l 483 -56 l 225 -56 l 26 986 z "},"ẃ":{"ha":1142,"x_min":25,"x_max":1122,"o":"m 843 1194 l 649 982 l 456 982 l 563 1236 l 843 1194 m 25 910 l 278 910 l 358 358 l 522 850 l 618 850 l 782 365 l 861 910 l 1122 910 l 925 0 l 696 0 l 575 385 l 468 0 l 210 0 l 25 910 z "},"Ẅ":{"ha":1175,"x_min":26,"x_max":1151,"o":"m 415 1043 q 325 1081 363 1043 q 288 1175 288 1119 q 325 1266 288 1228 q 415 1304 363 1304 q 503 1265 465 1304 q 542 1175 542 1226 q 503 1082 542 1121 q 415 1043 465 1043 m 740 1043 q 648 1081 685 1043 q 611 1175 611 1119 q 649 1266 611 1228 q 740 1304 686 1304 q 828 1265 790 1304 q 867 1175 867 1226 q 828 1082 867 1121 q 740 1043 790 1043 m 26 986 l 282 986 l 379 335 l 543 943 l 633 943 l 796 349 l 892 986 l 1151 986 l 940 -56 l 711 -56 l 590 400 l 483 -56 l 225 -56 l 26 986 z "},"ẅ":{"ha":1142,"x_min":25,"x_max":1122,"o":"m 401 979 q 311 1017 349 979 q 274 1111 274 1056 q 311 1202 274 1164 q 401 1240 349 1240 q 490 1201 451 1240 q 528 1111 528 1163 q 490 1018 528 1057 q 401 979 451 979 m 726 979 q 634 1017 671 979 q 597 1111 597 1056 q 635 1202 597 1164 q 726 1240 672 1240 q 815 1201 776 1240 q 853 1111 853 1163 q 815 1018 853 1057 q 726 979 776 979 m 25 910 l 278 910 l 358 358 l 522 850 l 618 850 l 782 365 l 861 910 l 1122 910 l 925 0 l 696 0 l 575 385 l 468 0 l 210 0 l 25 910 z "},"ẞ":{"ha":1178,"x_min":169,"x_max":1038,"o":"m 844 631 q 874 531 844 583 q 941 438 904 479 q 1008 336 978 397 q 1038 214 1038 275 q 947 8 1038 85 q 747 -69 856 -69 q 496 3 603 -69 l 558 229 q 694 168 653 168 q 751 228 751 168 q 724 309 751 260 q 665 403 697 358 q 605 510 632 447 q 578 631 578 574 q 625 764 578 713 l 513 764 q 443 667 443 764 l 443 -56 l 169 -56 l 169 668 q 248 904 169 822 q 506 986 326 986 l 893 986 l 893 764 q 858 721 871 757 q 844 631 844 685 z "},"Ỳ":{"ha":843,"x_min":26,"x_max":836,"o":"m 135 1278 l 421 1319 l 528 1065 l 301 1065 l 135 1278 m 836 986 l 567 483 l 567 -56 l 285 -56 l 285 478 l 26 986 l 300 986 l 425 701 l 549 986 l 836 986 z "},"ỳ":{"ha":821,"x_min":24,"x_max":806,"o":"m 161 1194 l 447 1236 l 554 982 l 328 982 l 161 1194 m 806 910 l 547 294 l 547 0 l 271 0 l 271 289 l 24 910 l 297 910 l 408 517 l 518 910 l 806 910 z "},"Ỹ":{"ha":857,"x_min":26,"x_max":836,"o":"m 653 1274 q 633 1132 669 1183 q 518 1081 597 1081 q 473 1083 493 1081 q 421 1094 453 1086 q 378 1103 389 1101 q 329 1061 332 1111 l 193 1079 q 205 1226 175 1172 q 303 1279 235 1279 q 393 1262 343 1279 q 464 1244 443 1244 q 518 1285 510 1244 l 653 1274 m 836 986 l 567 483 l 567 -56 l 285 -56 l 285 478 l 26 986 l 300 986 l 425 701 l 549 986 l 836 986 z "},"ỹ":{"ha":835,"x_min":24,"x_max":806,"o":"m 632 1190 q 613 1049 649 1100 q 497 997 576 997 q 452 1000 472 997 q 400 1010 432 1003 q 357 1019 368 1018 q 308 978 311 1028 l 172 996 q 184 1142 154 1089 q 282 1196 214 1196 q 372 1178 322 1196 q 443 1161 422 1161 q 497 1201 489 1161 l 632 1190 m 806 910 l 547 294 l 547 0 l 271 0 l 271 289 l 24 910 l 297 910 l 408 517 l 518 910 l 806 910 z "},"–":{"ha":769,"x_min":89,"x_max":682,"o":"m 682 521 l 682 368 l 89 368 l 89 521 l 682 521 z "},"—":{"ha":853,"x_min":89,"x_max":765,"o":"m 765 521 l 765 368 l 89 368 l 89 521 l 765 521 z "},"‘":{"ha":418,"x_min":56,"x_max":350,"o":"m 56 668 l 178 1000 l 350 1000 l 274 668 l 56 668 z "},"’":{"ha":393,"x_min":40,"x_max":335,"o":"m 335 1000 l 213 668 l 40 668 l 117 1000 l 335 1000 z "},"‚":{"ha":421,"x_min":57,"x_max":351,"o":"m 351 218 l 229 -114 l 57 -114 l 133 218 l 351 218 z "},"“":{"ha":732,"x_min":56,"x_max":672,"o":"m 56 668 l 178 1000 l 350 1000 l 274 668 l 56 668 m 378 668 l 500 1000 l 672 1000 l 596 668 l 378 668 z "},"”":{"ha":701,"x_min":40,"x_max":643,"o":"m 335 1000 l 213 668 l 40 668 l 117 1000 l 335 1000 m 643 1000 l 521 668 l 349 668 l 425 1000 l 643 1000 z "},"„":{"ha":747,"x_min":57,"x_max":674,"o":"m 351 215 l 229 -117 l 57 -117 l 133 215 l 351 215 m 674 215 l 551 -117 l 379 -117 l 456 215 l 674 215 z "},"†":{"ha":763,"x_min":63,"x_max":701,"o":"m 63 476 l 63 665 l 271 665 l 271 1000 l 493 1000 l 493 665 l 701 665 l 701 476 l 493 476 l 493 -83 l 271 -83 l 271 476 l 63 476 z "},"‡":{"ha":772,"x_min":63,"x_max":701,"o":"m 63 210 l 63 397 l 271 397 l 271 560 l 63 560 l 63 749 l 271 749 l 271 1000 l 493 1000 l 493 749 l 701 749 l 701 560 l 493 560 l 493 397 l 701 397 l 701 210 l 493 210 l 493 -83 l 271 -83 l 271 210 l 63 210 z "},"•":{"ha":572,"x_min":89,"x_max":485,"o":"m 288 246 q 147 305 204 246 q 89 450 89 364 q 147 592 89 533 q 288 651 204 651 q 425 592 365 651 q 485 450 485 532 q 425 306 485 365 q 288 246 365 246 z "},"…":{"ha":1092,"x_min":75,"x_max":1058,"o":"m 210 -14 q 114 26 153 -14 q 75 125 75 67 q 115 221 75 181 q 210 261 154 261 q 303 220 263 261 q 343 125 343 179 q 303 27 343 68 q 210 -14 263 -14 m 565 -14 q 469 26 508 -14 q 431 125 431 67 q 470 221 431 181 q 565 261 510 261 q 658 220 618 261 q 699 125 699 179 q 658 27 699 68 q 565 -14 618 -14 m 925 -14 q 829 26 868 -14 q 790 125 790 67 q 830 221 790 181 q 925 261 869 261 q 1018 220 978 261 q 1058 125 1058 179 q 1018 27 1058 68 q 925 -14 978 -14 z "},"‰":{"ha":1776,"x_min":53,"x_max":1751,"o":"m 426 462 q 397 425 426 462 q 269 388 367 388 q 113 462 172 388 q 53 657 53 536 q 113 850 53 776 q 269 924 172 924 q 426 850 367 924 q 486 657 486 776 q 426 462 486 536 m 896 903 l 567 0 l 410 0 l 738 903 l 896 903 m 228 657 q 240 575 228 606 q 271 544 251 544 q 301 575 290 544 q 313 657 313 606 q 301 736 313 706 q 271 767 289 767 q 240 737 251 767 q 228 657 228 707 m 1175 60 q 1145 23 1175 60 q 1018 -14 1115 -14 q 861 60 921 -14 q 801 256 801 135 q 861 449 801 375 q 1018 522 921 522 q 1175 449 1115 522 q 1235 256 1235 375 q 1175 60 1235 135 m 1692 60 q 1662 23 1692 60 q 1535 -14 1632 -14 q 1378 60 1438 -14 q 1318 256 1318 135 q 1378 449 1318 375 q 1535 522 1438 522 q 1692 449 1632 522 q 1751 256 1751 375 q 1692 60 1751 135 m 976 256 q 988 174 976 204 q 1019 143 1000 143 q 1050 174 1039 143 q 1061 256 1061 204 q 1049 335 1061 304 q 1019 365 1038 365 q 988 335 1000 365 q 976 256 976 306 m 1493 256 q 1505 174 1493 204 q 1536 143 1517 143 q 1567 174 1556 143 q 1578 256 1578 204 q 1566 335 1578 304 q 1536 365 1554 365 q 1505 335 1517 365 q 1493 256 1493 306 z "},"‹":{"ha":503,"x_min":56,"x_max":439,"o":"m 56 385 l 56 522 l 207 704 l 439 704 l 225 458 l 439 194 l 207 194 l 56 385 z "},"›":{"ha":504,"x_min":56,"x_max":439,"o":"m 56 194 l 269 458 l 56 704 l 288 704 l 439 522 l 439 385 l 288 194 l 56 194 z "},"⁄":{"ha":528,"x_min":0,"x_max":506,"o":"m 506 903 l 176 0 l 0 0 l 328 903 l 506 903 z "},"€":{"ha":924,"x_min":110,"x_max":788,"o":"m 110 329 l 110 404 l 179 404 q 178 457 178 421 l 178 468 l 110 468 l 110 543 l 183 543 q 310 820 206 717 q 574 924 415 924 q 788 871 682 924 l 732 635 q 600 674 681 674 q 460 543 482 674 l 697 543 l 697 468 l 453 468 l 453 457 q 456 404 453 421 l 669 404 l 669 329 l 469 329 q 600 238 501 238 q 733 265 678 238 l 781 28 q 567 -12 697 -12 q 320 79 421 -12 q 189 329 219 171 l 110 329 z "},"™":{"ha":1078,"x_min":57,"x_max":999,"o":"m 57 774 l 57 910 l 407 910 l 407 774 l 310 774 l 310 390 l 153 390 l 153 774 l 57 774 m 461 390 l 522 910 l 643 910 l 726 704 l 810 910 l 929 910 l 999 390 l 849 390 l 825 646 l 754 492 l 699 492 l 631 640 l 607 390 l 461 390 z "},"−":{"ha":654,"x_min":92,"x_max":576,"o":"m 576 518 l 576 354 l 92 354 l 92 518 l 576 518 z "},"≈":{"ha":726,"x_min":76,"x_max":661,"o":"m 644 658 q 625 505 661 558 q 510 451 589 451 q 388 463 471 451 q 279 474 306 474 q 244 463 256 474 q 231 418 232 451 l 94 436 q 106 594 76 539 q 204 650 136 650 q 340 633 244 650 q 456 615 435 615 q 510 669 503 615 l 644 658 m 644 354 q 625 201 661 254 q 510 147 589 147 q 388 158 471 147 q 279 169 306 169 q 244 158 256 169 q 231 114 232 147 l 94 132 q 106 290 76 235 q 204 346 136 346 q 340 328 244 346 q 456 311 435 311 q 510 365 503 311 l 644 354 z "},"≠":{"ha":661,"x_min":92,"x_max":576,"o":"m 92 164 l 92 322 l 250 322 l 294 454 l 92 454 l 92 613 l 349 613 l 392 740 l 447 740 l 404 613 l 576 613 l 576 454 l 350 454 l 306 322 l 576 322 l 576 164 l 251 164 l 203 21 l 149 21 l 197 164 l 92 164 z "},"":{"ha":2193,"x_min":228,"x_max":1965,"o":"m 1049 810 q 1073 871 1049 846 q 1133 896 1097 896 q 1194 871 1169 896 q 1219 810 1219 846 q 1194 749 1219 774 q 1133 725 1169 725 q 1073 750 1097 725 q 1049 810 1049 775 m 393 375 l 228 375 q 231 592 228 483 q 236 756 233 701 l 240 811 l 379 811 q 393 375 392 618 m 1053 375 q 1057 579 1053 503 l 972 579 l 976 489 q 997 483 982 483 q 1012 485 1006 483 q 1019 489 1018 486 l 1022 490 l 1022 388 q 931 367 1008 367 q 814 458 814 367 q 817 528 814 479 q 819 579 819 576 l 789 579 l 789 689 l 954 731 l 956 707 l 1203 707 q 1217 375 1217 618 l 1053 375 m 544 368 q 417 525 417 368 q 607 714 417 714 q 775 551 772 714 l 775 375 l 660 375 l 649 460 q 616 391 640 414 q 544 368 592 368 m 1603 375 l 1444 375 q 1446 453 1444 411 q 1447 508 1447 494 q 1426 544 1447 544 q 1401 508 1401 544 q 1403 453 1401 494 q 1406 375 1406 411 l 1247 375 q 1251 566 1247 483 q 1258 678 1254 649 l 1261 707 l 1372 707 q 1381 601 1381 644 q 1387 636 1381 614 q 1421 686 1393 658 q 1493 714 1449 714 q 1573 680 1550 714 q 1599 567 1596 646 l 1603 375 m 1965 533 q 1922 413 1965 457 q 1793 368 1879 368 q 1667 414 1710 368 q 1625 533 1625 460 q 1794 714 1625 714 q 1928 666 1892 714 q 1965 533 1965 618 m 631 521 q 599 557 631 557 q 567 521 567 557 q 599 479 567 479 q 631 521 631 479 m 1826 521 q 1794 557 1826 557 q 1765 521 1765 557 q 1794 479 1765 479 q 1826 521 1826 479 m 683 331 l 828 331 q 842 126 842 247 q 793 -22 842 25 q 635 -69 744 -69 q 559 -64 590 -69 q 518 -53 528 -58 l 508 -46 l 508 69 q 604 47 536 47 q 656 57 638 47 q 678 76 675 67 l 681 86 q 613 71 663 71 q 488 186 488 71 l 488 204 l 411 204 l 415 114 q 436 108 421 108 q 451 110 444 108 q 458 114 457 111 l 461 115 l 461 14 q 368 -7 447 -7 q 254 82 254 -7 q 258 204 254 146 l 233 204 l 233 315 l 396 356 l 394 332 l 640 331 l 640 165 q 660 128 640 128 q 683 165 683 128 l 683 331 m 1107 338 q 1188 297 1158 338 q 1218 182 1218 257 q 1028 -7 1218 -7 q 1029 -61 1029 -25 l 864 -61 q 867 142 864 44 q 875 286 871 240 l 878 331 l 986 331 q 996 225 996 258 q 1005 260 999 240 q 1038 309 1011 281 q 1107 338 1065 338 m 1575 179 l 1571 128 l 1399 128 q 1467 103 1411 103 q 1508 107 1489 103 q 1536 115 1528 111 l 1544 119 l 1544 15 q 1436 -7 1517 -7 q 1290 36 1340 -7 q 1240 156 1240 79 q 1285 291 1240 244 q 1415 338 1331 338 q 1533 296 1490 338 q 1575 179 1575 254 m 1447 151 q 1424 189 1451 189 q 1392 151 1392 189 l 1447 151 m 1019 100 q 1033 102 1025 100 q 1056 117 1042 104 q 1071 153 1071 131 q 1043 183 1071 183 q 1013 139 1013 183 l 1019 100 m 1591 40 q 1586 36 1591 40 q 1582 18 1582 32 q 1591 -5 1582 4 q 1614 -14 1600 -14 q 1635 -5 1626 -14 q 1644 18 1644 4 q 1635 40 1644 32 q 1614 49 1626 49 q 1591 40 1600 49 m 1596 1 q 1592 5 1596 1 q 1589 18 1589 8 q 1596 35 1589 28 q 1614 43 1603 43 q 1631 35 1624 43 q 1638 18 1638 28 q 1631 1 1638 8 q 1614 -7 1624 -7 q 1596 1 1603 -7 m 1628 3 l 1619 15 q 1629 25 1629 15 q 1615 35 1629 35 l 1600 35 l 1600 3 l 1607 3 l 1607 15 l 1614 15 l 1619 3 l 1628 3 m 1615 21 l 1607 21 l 1607 29 l 1614 29 q 1622 26 1622 29 q 1615 21 1622 21 z "},"ﬁ":{"ha":1094,"x_min":65,"x_max":1026,"o":"m 597 672 l 340 672 l 340 511 l 594 511 l 594 286 l 340 286 l 340 0 l 65 0 l 65 910 l 597 910 l 597 672 m 751 910 l 1026 910 l 1026 0 l 751 0 l 751 910 z "},"ﬂ":{"ha":1331,"x_min":65,"x_max":1296,"o":"m 65 0 l 65 910 l 597 910 l 597 672 l 340 672 l 340 511 l 594 511 l 594 286 l 340 286 l 340 0 l 65 0 m 1026 238 l 1296 238 l 1296 0 l 751 0 l 751 910 l 1026 910 l 1026 238 z "}}}
